<svg xmlns="http://www.w3.org/2000/svg" xmlns:xlink="http://www.w3.org/1999/xlink" viewBox="0 0 68.15 93.44"><defs><style>.cls-1,.cls-6,.cls-7{fill:none;}.cls-2{clip-path:url(#clip-path);}.cls-3{fill:#929497;}.cls-4{fill:#808184;}.cls-5,.cls-6,.cls-7{stroke:#231f20;stroke-miterlimit:10;}.cls-5{stroke-width:5.33px;fill:url(#New_Pattern_Swatch_2);}.cls-6{stroke-width:9px;}.cls-7{stroke-width:5px;}</style><clipPath id="clip-path"><rect class="cls-1" width="9.61" height="9.61"/></clipPath><pattern id="New_Pattern_Swatch_2" data-name="New Pattern Swatch 2" width="9.61" height="9.61" patternUnits="userSpaceOnUse" viewBox="0 0 9.61 9.61"><rect class="cls-1" width="9.61" height="9.61"/><g class="cls-2"><rect class="cls-3" x="-4.92" y="-4.81" width="20.53" height="20.53"/><path class="cls-1" d="M-4-2.38"/><path class="cls-4" d="M-4.92-1.81a6.24,6.24,0,0,1,6,0,6.24,6.24,0,0,1-6,0Z"/><path class="cls-4" d="M0,3.18a6.24,6.24,0,0,1,6,0,6.26,6.26,0,0,1-6,0Z"/><path class="cls-4" d="M3-4.81a6.24,6.24,0,0,1,0,6,6.24,6.24,0,0,1,0-6Z"/><path class="cls-4" d="M-1.92,0a6.24,6.24,0,0,1,0,6,6.24,6.24,0,0,1,0-6Z"/><path class="cls-1" d="M5.63-2.38"/><path class="cls-4" d="M4.69-1.81a6.24,6.24,0,0,1,6,0,6.24,6.24,0,0,1-6,0Z"/><path class="cls-4" d="M9.61,3.18a6.24,6.24,0,0,1,6,0,6.26,6.26,0,0,1-6,0Z"/><path class="cls-4" d="M12.61-4.81a6.24,6.24,0,0,1,0,6,6.24,6.24,0,0,1,0-6Z"/><path class="cls-4" d="M7.69,0a6.24,6.24,0,0,1,0,6,6.24,6.24,0,0,1,0-6Z"/><path class="cls-1" d="M-4,7.19"/><path class="cls-4" d="M-4.92,7.76a6.24,6.24,0,0,1,6,0,6.26,6.26,0,0,1-6,0Z"/><path class="cls-4" d="M0,12.74a6.29,6.29,0,0,1,6,0,6.24,6.24,0,0,1-6,0Z"/><path class="cls-4" d="M3,4.76a6.24,6.24,0,0,1,0,6,6.24,6.24,0,0,1,0-6Z"/><path class="cls-4" d="M-1.92,9.57a6.24,6.24,0,0,1,0,6,6.24,6.24,0,0,1,0-6Z"/><path class="cls-1" d="M5.63,7.19"/><path class="cls-4" d="M4.69,7.76a6.24,6.24,0,0,1,6,0,6.26,6.26,0,0,1-6,0Z"/><path class="cls-4" d="M9.61,12.74a6.29,6.29,0,0,1,6,0,6.24,6.24,0,0,1-6,0Z"/><path class="cls-4" d="M12.61,4.76a6.24,6.24,0,0,1,0,6,6.24,6.24,0,0,1,0-6Z"/><path class="cls-4" d="M7.69,9.57a6.24,6.24,0,0,1,0,6,6.24,6.24,0,0,1,0-6Z"/></g></pattern></defs><g id="Layer_2" data-name="Layer 2"><g id="Layer_1-2" data-name="Layer 1"><polygon class="cls-5" points="49.66 68.2 40.91 73.25 3.64 8.69 12.38 3.64 49.66 68.2"/><circle class="cls-6" cx="46.67" cy="71.96" r="16.98"/><line class="cls-7" x1="46.67" y1="54.98" x2="46.67" y2="88.62"/><line class="cls-7" x1="30.86" y1="63.34" x2="60.52" y2="79.33"/><line class="cls-7" x1="61.27" y1="63.06" x2="32.24" y2="80.55"/></g></g></svg>