<svg xmlns="http://www.w3.org/2000/svg" xmlns:xlink="http://www.w3.org/1999/xlink" viewBox="0 0 102.74 63.52"><defs><style>.cls-1,.cls-2,.cls-3,.cls-4,.cls-5,.cls-6,.cls-7,.cls-8{stroke:#231f20;stroke-miterlimit:10;stroke-width:5px;}.cls-1{fill:url(#Gold_Gradient);}.cls-2{fill:url(#Gold_Gradient-2);}.cls-3{fill:url(#Gold_Gradient-3);}.cls-4{fill:url(#Gold_Gradient-4);}.cls-5{fill:url(#Gold_Gradient-5);}.cls-6{fill:url(#Gold_Gradient-6);}.cls-7{fill:url(#Gold_Gradient-7);}.cls-8{fill:url(#Gold_Gradient-8);}</style><linearGradient id="Gold_Gradient" x1="3.25" y1="18.22" x2="36.58" y2="18.22" gradientTransform="translate(8.12 -6.06) rotate(21.63)" gradientUnits="userSpaceOnUse"><stop offset="0" stop-color="#ffc654"/><stop offset="1" stop-color="#c78500"/></linearGradient><linearGradient id="Gold_Gradient-2" x1="43.59" y1="17.55" x2="71.87" y2="17.55" gradientTransform="translate(117.77 11.53) rotate(157.37)" xlink:href="#Gold_Gradient"/><linearGradient id="Gold_Gradient-3" x1="33.38" y1="10.27" x2="48.93" y2="10.27" gradientTransform="matrix(1, 0, 0, 1, 0, 0)" xlink:href="#Gold_Gradient"/><linearGradient id="Gold_Gradient-4" x1="3.75" y1="44.93" x2="36.97" y2="44.93" gradientTransform="translate(-15.72 11.3) rotate(-22.63)" xlink:href="#Gold_Gradient"/><linearGradient id="Gold_Gradient-5" x1="43.98" y1="46.27" x2="72.34" y2="46.27" gradientTransform="translate(95.18 110.72) rotate(-158.37)" xlink:href="#Gold_Gradient"/><linearGradient id="Gold_Gradient-6" x1="33.68" y1="53.25" x2="49.23" y2="53.25" gradientTransform="matrix(1, 0, 0, 1, 0, 0)" xlink:href="#Gold_Gradient"/><linearGradient id="Gold_Gradient-7" x1="62.86" y1="20.13" x2="100.24" y2="20.13" gradientTransform="matrix(1, 0, 0, 1, 0, 0)" xlink:href="#Gold_Gradient"/><linearGradient id="Gold_Gradient-8" x1="62.64" y1="45.15" x2="100.02" y2="45.15" gradientTransform="matrix(1, 0, 0, 1, 0, 0)" xlink:href="#Gold_Gradient"/></defs><g id="Layer_2" data-name="Layer 2"><g id="Layer_1-2" data-name="Layer 1"><rect class="cls-1" x="3.21" y="15.13" width="33.4" height="6.19" transform="translate(-5.31 8.62) rotate(-21.63)"/><rect class="cls-2" x="43.7" y="14.45" width="28.06" height="6.19" transform="translate(104.26 55.96) rotate(-157.37)"/><circle class="cls-3" cx="41.15" cy="10.27" r="7.77"/><rect class="cls-4" x="3.66" y="41.83" width="33.4" height="6.19" transform="translate(18.86 -4.38) rotate(22.63)"/><rect class="cls-5" x="44.13" y="43.17" width="28.06" height="6.19" transform="translate(129.28 67.85) rotate(158.37)"/><circle class="cls-6" cx="41.46" cy="53.25" r="7.77"/><path class="cls-7" d="M75,16.55c0,5.61-.09,5.5-.17,14.29l-11.94-.11L63,9.42l37.14.33c0,1.8.09,7,0,10.94-5.15,2.95-8.25,2.75-10.16,1.89-2.89-1.29-3.24-4.13-6.5-5.78C80.68,15.35,77.36,15.85,75,16.55Z"/><path class="cls-8" d="M74.68,48.72c0-5.61,0-5.5.09-14.29l-11.95-.1-.18,21.31L99.78,56c0-1.8.2-7,.24-10.94-5.1-3-8.2-2.89-10.13-2.07C87,44.19,86.58,47,83.29,48.62,80.38,50,77.06,49.46,74.68,48.72Z"/></g></g></svg>