<svg xmlns="http://www.w3.org/2000/svg" xmlns:xlink="http://www.w3.org/1999/xlink" viewBox="0 0 101.64 95.78"><defs><style>.cls-1,.cls-10,.cls-11,.cls-12,.cls-13,.cls-14,.cls-15,.cls-16,.cls-17,.cls-18,.cls-19,.cls-2,.cls-20,.cls-3,.cls-4,.cls-5,.cls-6,.cls-7,.cls-8,.cls-9{stroke:#231f20;stroke-linejoin:round;stroke-width:5px;}.cls-1{fill:url(#Gold_Gradient);}.cls-2{fill:url(#Gold_Gradient-2);}.cls-3{fill:url(#Gold_Gradient-3);}.cls-4{fill:url(#Gold_Gradient-4);}.cls-5{fill:url(#Gold_Gradient-5);}.cls-6{fill:url(#Gold_Gradient-6);}.cls-7{fill:url(#Gold_Gradient-7);}.cls-8{fill:url(#Gold_Gradient-8);}.cls-9{fill:url(#Gold_Gradient-9);}.cls-10{fill:url(#Gold_Gradient-10);}.cls-11{fill:url(#Gold_Gradient-11);}.cls-12{fill:url(#Gold_Gradient-12);}.cls-13{fill:url(#Gold_Gradient-13);}.cls-14{fill:url(#Gold_Gradient-14);}.cls-15{fill:url(#Gold_Gradient-15);}.cls-16{fill:url(#Gold_Gradient-16);}.cls-17{fill:url(#Gold_Gradient-17);}.cls-18{fill:url(#Gold_Gradient-18);}.cls-19{fill:url(#Gold_Gradient-19);}.cls-20{fill:url(#Gold_Gradient-20);}</style><linearGradient id="Gold_Gradient" x1="2.5" y1="37.12" x2="62.48" y2="37.12" gradientUnits="userSpaceOnUse"><stop offset="0" stop-color="#ffc654"/><stop offset="1" stop-color="#c78500"/></linearGradient><linearGradient id="Gold_Gradient-2" x1="41.57" y1="47.82" x2="91.21" y2="47.82" gradientTransform="translate(31.21 -26.05) rotate(28.77)" xlink:href="#Gold_Gradient"/><linearGradient id="Gold_Gradient-3" x1="59.84" y1="15.02" x2="66.85" y2="15.02" xlink:href="#Gold_Gradient"/><linearGradient id="Gold_Gradient-4" x1="65.73" y1="26.19" x2="72.74" y2="26.19" xlink:href="#Gold_Gradient"/><linearGradient id="Gold_Gradient-5" x1="71.81" y1="37.26" x2="78.81" y2="37.26" xlink:href="#Gold_Gradient"/><linearGradient id="Gold_Gradient-6" x1="77.83" y1="48.36" x2="84.83" y2="48.36" xlink:href="#Gold_Gradient"/><linearGradient id="Gold_Gradient-7" x1="83.66" y1="58.92" x2="90.66" y2="58.92" xlink:href="#Gold_Gradient"/><linearGradient id="Gold_Gradient-8" x1="89.35" y1="69.55" x2="96.35" y2="69.55" xlink:href="#Gold_Gradient"/><linearGradient id="Gold_Gradient-9" x1="35.87" y1="26.66" x2="42.87" y2="26.66" xlink:href="#Gold_Gradient"/><linearGradient id="Gold_Gradient-10" x1="42.34" y1="7.53" x2="47.17" y2="7.53" xlink:href="#Gold_Gradient"/><linearGradient id="Gold_Gradient-11" x1="52.2" y1="6.14" x2="55.73" y2="6.14" xlink:href="#Gold_Gradient"/><linearGradient id="Gold_Gradient-12" x1="34.06" y1="16.56" x2="41.33" y2="16.56" xlink:href="#Gold_Gradient"/><linearGradient id="Gold_Gradient-13" x1="85.84" y1="88.57" x2="90.67" y2="88.57" xlink:href="#Gold_Gradient"/><linearGradient id="Gold_Gradient-14" x1="91.87" y1="79.83" x2="99.14" y2="79.83" xlink:href="#Gold_Gradient"/><linearGradient id="Gold_Gradient-15" x1="77.14" y1="89.65" x2="80.67" y2="89.65" xlink:href="#Gold_Gradient"/><linearGradient id="Gold_Gradient-16" x1="42.13" y1="37.63" x2="49.13" y2="37.63" xlink:href="#Gold_Gradient"/><linearGradient id="Gold_Gradient-17" x1="48.21" y1="48.7" x2="55.21" y2="48.7" xlink:href="#Gold_Gradient"/><linearGradient id="Gold_Gradient-18" x1="54.35" y1="59.73" x2="61.35" y2="59.73" xlink:href="#Gold_Gradient"/><linearGradient id="Gold_Gradient-19" x1="60.13" y1="70.32" x2="67.13" y2="70.32" xlink:href="#Gold_Gradient"/><linearGradient id="Gold_Gradient-20" x1="66.04" y1="80.83" x2="73.05" y2="80.83" xlink:href="#Gold_Gradient"/></defs><g id="Layer_2" data-name="Layer 2"><g id="Layer_1-2" data-name="Layer 1"><rect class="cls-1" x="2.5" y="32.6" width="59.98" height="9.06"/><rect class="cls-2" x="57.31" y="6.05" width="18.16" height="83.56" rx="9.08" transform="translate(-14.82 37.86) rotate(-28.77)"/><polygon class="cls-3" points="66.85 12.6 59.84 14.61 61.39 17.43 66.85 12.6"/><polygon class="cls-4" points="72.74 23.77 65.73 25.79 67.28 28.6 72.74 23.77"/><polygon class="cls-5" points="78.81 34.84 71.81 36.85 73.36 39.67 78.81 34.84"/><polygon class="cls-6" points="84.83 45.95 77.83 47.96 79.37 50.78 84.83 45.95"/><polygon class="cls-7" points="90.66 56.51 83.66 58.52 85.21 61.33 90.66 56.51"/><polygon class="cls-8" points="96.35 67.14 89.35 69.15 90.9 71.97 96.35 67.14"/><polygon class="cls-9" points="35.87 29.07 41.32 24.25 42.87 27.06 35.87 29.07"/><polygon class="cls-10" points="42.34 4.03 47.17 9.48 44.36 11.03 42.34 4.03"/><polygon class="cls-11" points="55.73 2.5 55.29 9.77 52.2 8.87 55.73 2.5"/><polygon class="cls-12" points="34.06 14.79 41.33 15.23 40.43 18.32 34.06 14.79"/><polygon class="cls-13" points="90.67 92.07 88.66 85.07 85.84 86.61 90.67 92.07"/><polygon class="cls-14" points="99.14 81.59 92.77 78.06 91.87 81.15 99.14 81.59"/><polygon class="cls-15" points="77.14 93.28 80.67 86.91 77.58 86.01 77.14 93.28"/><polygon class="cls-16" points="42.13 40.04 47.59 35.21 49.13 38.03 42.13 40.04"/><polygon class="cls-17" points="48.21 51.11 53.66 46.28 55.21 49.1 48.21 51.11"/><polygon class="cls-18" points="54.35 62.15 59.8 57.32 61.35 60.13 54.35 62.15"/><polygon class="cls-19" points="60.13 72.73 65.58 67.9 67.13 70.72 60.13 72.73"/><polygon class="cls-20" points="66.04 83.24 71.5 78.41 73.05 81.23 66.04 83.24"/></g></g></svg>