<svg xmlns="http://www.w3.org/2000/svg" xmlns:xlink="http://www.w3.org/1999/xlink" viewBox="0 0 117.33 67.04"><defs><style>.cls-1,.cls-2,.cls-3,.cls-4,.cls-5,.cls-6{stroke:#231f20;stroke-linejoin:round;stroke-width:5px;}.cls-1{fill:url(#Gold_Gradient);}.cls-2{fill:url(#Gold_Gradient-2);}.cls-3{fill:url(#Gold_Gradient-3);}.cls-4{fill:url(#Gold_Gradient-4);}.cls-5{fill:url(#Gold_Gradient-5);}.cls-6{fill:url(#Gold_Gradient-6);}</style><linearGradient id="Gold_Gradient" x1="2.5" y1="44.9" x2="95.41" y2="44.9" gradientUnits="userSpaceOnUse"><stop offset="0" stop-color="#ffc654"/><stop offset="1" stop-color="#c78500"/></linearGradient><linearGradient id="Gold_Gradient-2" x1="21.79" y1="43.64" x2="26.72" y2="43.64" xlink:href="#Gold_Gradient"/><linearGradient id="Gold_Gradient-3" x1="43.13" y1="52.31" x2="48.22" y2="52.31" xlink:href="#Gold_Gradient"/><linearGradient id="Gold_Gradient-4" x1="65.19" y1="52.63" x2="72.47" y2="52.63" xlink:href="#Gold_Gradient"/><linearGradient id="Gold_Gradient-5" x1="81.75" y1="34.28" x2="92.78" y2="34.28" xlink:href="#Gold_Gradient"/><linearGradient id="Gold_Gradient-6" x1="78.83" y1="18.35" x2="114.83" y2="18.35" xlink:href="#Gold_Gradient"/></defs><g id="Layer_2" data-name="Layer 2"><g id="Layer_1-2" data-name="Layer 1"><path class="cls-1" d="M2.5,48.45C8,42.22,13.76,36.21,22.61,36.21c7.18.38,13.32,6.91,25.82,10,9.31,2.33,13.81,1.21,21.93-2.3,3.19-1.37,9-6.11,15.16-18.68l9.89,6.9C93.66,37.71,86,51,74.51,57.84c-14.13,8.46-27.37,3.59-31.11,2.1-9.7-3.85-14.84-8.75-22-8.91-9.09-.2-14,7.37-18.82,13.51C2.57,60.23,2.5,55.06,2.5,48.45Z"/><path class="cls-2" d="M21.87,36.23a8.32,8.32,0,0,1,4.78,8.55C26.06,49.12,22,51,21.79,51.05"/><path class="cls-3" d="M43.61,44.78a8.36,8.36,0,0,1,4.58,8.12,8.24,8.24,0,0,1-5.06,6.93"/><path class="cls-4" d="M65.19,46a10.08,10.08,0,0,1,6,4.79,10.65,10.65,0,0,1,.62,8.5"/><path class="cls-5" d="M81.75,32.08a6.76,6.76,0,0,1,7.83-.5A7.12,7.12,0,0,1,92.77,38"/><path class="cls-6" d="M96.36,3.86c-5-3.61-14,.67-16.14,4.75-2.83,5.33-1.42,14,4.82,17.6l10.37,5.95a12.51,12.51,0,0,0,17.07-3.29,13.34,13.34,0,0,0-2.64-18q-3.42,5.91-6.86,11.81l-12.44-7.3C92.22,11.81,94.37,7.79,96.36,3.86Z"/></g></g></svg>