<svg xmlns="http://www.w3.org/2000/svg" xmlns:xlink="http://www.w3.org/1999/xlink" viewBox="0 0 104.71 80.75"><defs><style>.cls-1,.cls-2,.cls-3{stroke:#231f20;stroke-miterlimit:10;stroke-width:5px;}.cls-1{fill:url(#Gold_Gradient);}.cls-2{fill:url(#Gold_Gradient-2);}.cls-3{fill:url(#Gold_Gradient-3);}</style><linearGradient id="Gold_Gradient" x1="2.5" y1="35.57" x2="60.26" y2="35.57" gradientUnits="userSpaceOnUse"><stop offset="0" stop-color="#ffc654"/><stop offset="1" stop-color="#c78500"/></linearGradient><linearGradient id="Gold_Gradient-2" x1="42.92" y1="40.38" x2="82.53" y2="40.38" gradientTransform="translate(18.54 -19.19) rotate(20.42)" xlink:href="#Gold_Gradient"/><linearGradient id="Gold_Gradient-3" x1="30.61" y1="38.67" x2="102.21" y2="38.67" gradientTransform="translate(67.41 116.8) rotate(-118.76)" xlink:href="#Gold_Gradient"/></defs><g id="Layer_2" data-name="Layer 2"><g id="Layer_1-2" data-name="Layer 1"><rect class="cls-1" x="2.5" y="29.9" width="57.76" height="11.34"/><path class="cls-2" d="M58,1.7h9.17a2,2,0,0,1,2,2V81.24a.78.78,0,0,1-.78.78h0A12.43,12.43,0,0,1,55.94,69.6V3.72a2,2,0,0,1,2-2Z" transform="translate(-10.68 24.46) rotate(-20.42)"/><path class="cls-3" d="M74.09-1.71h0a.78.78,0,0,1,.78.78V76.59a2,2,0,0,1-2,2H63.68a2,2,0,0,1-2-2V10.72A12.43,12.43,0,0,1,74.09-1.71Z" transform="translate(134.82 -2.89) rotate(118.76)"/></g></g></svg>