<svg xmlns="http://www.w3.org/2000/svg" xmlns:xlink="http://www.w3.org/1999/xlink" viewBox="0 0 90.44 65.75"><defs><style>.cls-1,.cls-2,.cls-3,.cls-4{stroke:#231f20;stroke-linejoin:round;stroke-width:5px;}.cls-1{fill:url(#Gold_Gradient);}.cls-2{fill:url(#Gold_Gradient-2);}.cls-3{fill:url(#Gold_Gradient-3);}.cls-4{fill:url(#Gold_Gradient-4);}</style><linearGradient id="Gold_Gradient" x1="2.5" y1="22.25" x2="58.4" y2="22.25" gradientTransform="translate(-7.05 18.25) rotate(-30.07)" gradientUnits="userSpaceOnUse"><stop offset="0" stop-color="#ffc654"/><stop offset="1" stop-color="#c78500"/></linearGradient><linearGradient id="Gold_Gradient-2" x1="48.14" y1="41.11" x2="78.9" y2="41.11" gradientTransform="translate(-12.05 37.36) rotate(-30.07)" xlink:href="#Gold_Gradient"/><linearGradient id="Gold_Gradient-3" x1="74.6" y1="41.2" x2="87.94" y2="41.2" gradientTransform="matrix(1, 0, 0, 1, 0, 0)" xlink:href="#Gold_Gradient"/><linearGradient id="Gold_Gradient-4" x1="65.76" y1="57.32" x2="78.11" y2="57.32" gradientTransform="matrix(1, 0, 0, 1, 0, 0)" xlink:href="#Gold_Gradient"/></defs><g id="Layer_2" data-name="Layer 2"><g id="Layer_1-2" data-name="Layer 1"><rect class="cls-1" x="1.75" y="16.05" width="57.41" height="12.41" transform="translate(15.25 -12.26) rotate(30.07)"/><rect class="cls-2" x="54.16" y="26.58" width="18.72" height="29.07" transform="translate(29.15 -26.3) rotate(30.07)"/><path class="cls-3" d="M77.21,36.13c3.35,1.08,7.15,2.7,10.73,3.91l-3.61,6.24L74.6,40.64C75.7,38.75,76.11,38,77.21,36.13Z"/><path class="cls-4" d="M65.76,55.9c2.61,2.36,5.9,4.85,8.74,7.35L78.11,57l-9.73-5.64Z"/></g></g></svg>