<svg xmlns="http://www.w3.org/2000/svg" viewBox="0 0 27.12 25.78"><defs><style>.cls-1{fill:none;stroke:#231f20;stroke-linejoin:round;stroke-width:3px;}</style></defs><g id="Layer_2" data-name="Layer 2"><g id="Layer_1-2" data-name="Layer 1"><path class="cls-1" d="M1,24.68,26.09,1.09"/><path class="cls-1" d="M4.67,13.84c-.95.89.19,4.09,2.14,6,1.54,1.48,4.13,2.67,5.05,1.84s0-3.54-1.38-5.2C8.77,14.32,5.63,13,4.67,13.84Z"/><path class="cls-1" d="M10.92,7.79c-1,.89.19,4.09,2.14,6,1.53,1.48,4.13,2.67,5,1.84s0-3.54-1.37-5.2C15,8.27,11.87,6.9,10.92,7.79Z"/><path class="cls-1" d="M16.77,1.93c-1,.89.19,4.1,2.14,6C20.44,9.37,23,10.57,24,9.73s0-3.53-1.38-5.2C20.86,2.42,17.73,1,16.77,1.93Z"/></g></g></svg>