<svg xmlns="http://www.w3.org/2000/svg" viewBox="0 0 68.45 64.42"><defs><style>.cls-1{fill:#a7a9ac;stroke:#231f20;stroke-linejoin:round;stroke-width:2px;}</style></defs><g id="Layer_2" data-name="Layer 2"><g id="Layer_1-2" data-name="Layer 1"><rect class="cls-1" x="1" y="21.69" width="41.24" height="6.23"/><rect class="cls-1" x="38.69" y="3.44" width="12.49" height="57.45" rx="6.24" transform="translate(-9.93 25.59) rotate(-28.77)"/><polygon class="cls-1" points="45.24 7.95 40.43 9.33 41.49 11.27 45.24 7.95"/><polygon class="cls-1" points="49.29 15.63 44.48 17.01 45.54 18.95 49.29 15.63"/><polygon class="cls-1" points="53.47 23.24 48.66 24.62 49.72 26.56 53.47 23.24"/><polygon class="cls-1" points="57.61 30.87 52.79 32.26 53.86 34.19 57.61 30.87"/><polygon class="cls-1" points="61.62 38.13 56.8 39.52 57.87 41.45 61.62 38.13"/><polygon class="cls-1" points="65.53 45.44 60.72 46.83 61.78 48.76 65.53 45.44"/><polygon class="cls-1" points="23.94 19.27 27.69 15.95 28.76 17.89 23.94 19.27"/><polygon class="cls-1" points="28.39 2.05 31.71 5.8 29.78 6.86 28.39 2.05"/><polygon class="cls-1" points="37.6 1 37.3 6 35.17 5.38 37.6 1"/><polygon class="cls-1" points="22.7 9.45 27.7 9.76 27.08 11.88 22.7 9.45"/><polygon class="cls-1" points="61.62 62.59 60.24 57.77 58.3 58.83 61.62 62.59"/><polygon class="cls-1" points="67.45 55.38 63.07 52.95 62.45 55.08 67.45 55.38"/><polygon class="cls-1" points="52.32 63.42 54.74 59.04 52.62 58.42 52.32 63.42"/><polygon class="cls-1" points="28.25 26.81 32 23.49 33.06 25.43 28.25 26.81"/><polygon class="cls-1" points="32.43 34.42 36.18 31.1 37.24 33.04 32.43 34.42"/><polygon class="cls-1" points="36.65 42.01 40.4 38.69 41.46 40.63 36.65 42.01"/><polygon class="cls-1" points="40.62 49.29 44.37 45.97 45.44 47.91 40.62 49.29"/><polygon class="cls-1" points="44.69 56.52 48.44 53.2 49.51 55.13 44.69 56.52"/></g></g></svg>