<svg xmlns="http://www.w3.org/2000/svg" viewBox="0 0 65.66 50.36"><defs><style>.cls-1{fill:#a7a9ac;stroke:#231f20;stroke-miterlimit:10;stroke-width:2px;}</style></defs><g id="Layer_2" data-name="Layer 2"><g id="Layer_1-2" data-name="Layer 1"><rect class="cls-1" x="1" y="18.49" width="36.88" height="7.24"/><path class="cls-1" d="M36.41.49h5.86a1.29,1.29,0,0,1,1.29,1.29V51.27a.5.5,0,0,1-.5.5h0a7.94,7.94,0,0,1-7.94-7.94V1.78A1.29,1.29,0,0,1,36.41.49Z" transform="translate(-6.65 15.37) rotate(-20.42)"/><path class="cls-1" d="M46.71-1.69h0a.5.5,0,0,1,.5.5V48.3a1.29,1.29,0,0,1-1.29,1.29H40.06a1.29,1.29,0,0,1-1.29-1.29V6.25A7.94,7.94,0,0,1,46.71-1.69Z" transform="translate(84.67 -2.21) rotate(118.76)"/></g></g></svg>