<svg xmlns="http://www.w3.org/2000/svg" viewBox="0 0 68.02 41.66"><defs><style>.cls-1{fill:#a7a9ac;stroke:#231f20;stroke-miterlimit:10;stroke-width:2px;}</style></defs><g id="Layer_2" data-name="Layer 2"><g id="Layer_1-2" data-name="Layer 1"><rect class="cls-1" x="1.26" y="9.68" width="22.64" height="4.2" transform="translate(-3.51 5.61) rotate(-22.13)"/><rect class="cls-1" x="28.69" y="9" width="19.01" height="4.2" transform="translate(69.41 35.77) rotate(-157.87)"/><circle class="cls-1" cx="26.92" cy="6.27" r="5.27"/><rect class="cls-1" x="1.72" y="27.78" width="22.64" height="4.2" transform="translate(12.21 -2.71) rotate(22.13)"/><rect class="cls-1" x="29.16" y="28.46" width="19.01" height="4.2" transform="translate(85.99 44.3) rotate(157.87)"/><circle class="cls-1" cx="27.39" cy="35.39" r="5.27"/><path class="cls-1" d="M49.87,10.32c0,3.8,0,3.73,0,9.68h-8.1V5.56H66.92c0,1.22.1,4.73.1,7.42-3.47,2-5.57,1.91-6.88,1.34-2-.86-2.22-2.79-4.44-3.88A8.06,8.06,0,0,0,49.87,10.32Z"/><path class="cls-1" d="M49.87,32.12c0-3.8,0-3.73,0-9.68h-8.1V36.88H66.92c0-1.22.1-4.73.1-7.42-3.47-2-5.57-1.91-6.88-1.34-2,.86-2.22,2.79-4.44,3.88A8.06,8.06,0,0,1,49.87,32.12Z"/></g></g></svg>