<svg xmlns="http://www.w3.org/2000/svg" viewBox="0 0 84.19 80.52"><defs><style>.cls-1{fill:#a7a9ac;stroke:#231f20;stroke-miterlimit:10;stroke-width:5px;}</style></defs><g id="Layer_2" data-name="Layer 2"><g id="Layer_1-2" data-name="Layer 1"><rect class="cls-1" x="2.5" y="19.34" width="39.76" height="8.47"/><path class="cls-1" d="M26.74,7.86l22,54.31a3.21,3.21,0,0,0,4.67,1.54L71,53a3.23,3.23,0,0,0,.75-4.87L33.26,3.86A3.88,3.88,0,0,0,26.74,7.86Z"/><path class="cls-1" d="M51.8,65.61,58,62c1.32,4.58,2.36,8.61,3.68,13.19L58.4,77.1C56.17,73.26,54.08,69.55,51.8,65.61Z"/><path class="cls-1" d="M73.53,52.35l-6,3.87c3.47,3.26,6.58,6,10,9.3l3.17-2C78.33,59.74,76,56.19,73.53,52.35Z"/><path class="cls-1" d="M60.72,61.14c1.59-1,3.44-1.94,5.19-3,.52,2,.75,3.46,1.28,5.42l-2.77,1.54Z"/></g></g></svg>