<svg xmlns="http://www.w3.org/2000/svg" viewBox="0 0 117.33 67.04"><defs><style>.cls-1{fill:#a7a9ac;stroke:#231f20;stroke-linejoin:round;stroke-width:5px;}</style></defs><g id="Layer_2" data-name="Layer 2"><g id="Layer_1-2" data-name="Layer 1"><path class="cls-1" d="M2.5,48.45C8,42.22,13.76,36.21,22.61,36.21c7.18.38,13.32,6.91,25.82,10,9.31,2.33,13.81,1.21,21.93-2.3,3.19-1.37,9-6.11,15.16-18.68l9.89,6.9C93.66,37.71,86,51,74.51,57.84c-14.13,8.46-27.37,3.59-31.11,2.1-9.7-3.85-14.84-8.75-22-8.91-9.09-.2-14,7.37-18.82,13.51C2.57,60.23,2.5,55.06,2.5,48.45Z"/><path class="cls-1" d="M21.87,36.23a8.32,8.32,0,0,1,4.78,8.55C26.06,49.12,22,51,21.79,51.05"/><path class="cls-1" d="M43.61,44.78a8.36,8.36,0,0,1,4.58,8.12,8.24,8.24,0,0,1-5.06,6.93"/><path class="cls-1" d="M65.19,46a10.08,10.08,0,0,1,6,4.79,10.65,10.65,0,0,1,.62,8.5"/><path class="cls-1" d="M81.75,32.08a6.76,6.76,0,0,1,7.83-.5A7.12,7.12,0,0,1,92.77,38"/><path class="cls-1" d="M96.36,3.86c-5-3.61-14,.67-16.14,4.75-2.83,5.33-1.42,14,4.82,17.6l10.37,5.95a12.51,12.51,0,0,0,17.07-3.29,13.34,13.34,0,0,0-2.64-18q-3.42,5.91-6.86,11.81l-12.44-7.3C92.22,11.81,94.37,7.79,96.36,3.86Z"/></g></g></svg>