<svg xmlns="http://www.w3.org/2000/svg" viewBox="0 0 67.88 47.81"><defs><style>.cls-1,.cls-2,.cls-3,.cls-4{fill:#a7a9ac;stroke:#231f20;}.cls-1,.cls-2,.cls-3{stroke-miterlimit:10;}.cls-1{stroke-width:1.73px;}.cls-2{stroke-width:1.77px;}.cls-3,.cls-4{stroke-width:2px;}.cls-4{stroke-linejoin:round;}</style></defs><g id="Layer_2" data-name="Layer 2"><g id="Layer_1-2" data-name="Layer 1"><rect class="cls-1" x="1.38" y="36.74" width="32.66" height="7.59" transform="translate(-6.09 3.25) rotate(-8.95)"/><rect class="cls-2" x="37.41" y="19.14" width="25.84" height="7.02" transform="translate(6.88 56.7) rotate(-62.32)"/><circle class="cls-3" cx="40.13" cy="36.65" r="7.44"/><path class="cls-4" d="M57,1.66c-2.44-1.08-5.56-.85-7.21.83-2.14,2.18-2.14,6.18.46,8.78l8.24,4.88a6,6,0,0,0,7.41-1.62A6.07,6.07,0,0,0,63.9,6L61,10.86c-2.32-1.38-4.75-2.71-7.08-4.09C55.08,4.84,55.73,3.76,57,1.66Z"/></g></g></svg>