<svg xmlns="http://www.w3.org/2000/svg" viewBox="0 0 53.23 50.7"><defs><style>.cls-1,.cls-2{fill:#a7a9ac;stroke:#231f20;stroke-miterlimit:10;}.cls-1{stroke-width:2.34px;}.cls-2{stroke-width:2px;}</style></defs><g id="Layer_2" data-name="Layer 2"><g id="Layer_1-2" data-name="Layer 1"><rect class="cls-1" x="1.17" y="11.91" width="25.76" height="5.49"/><path class="cls-2" d="M16.87,4.47,31.11,39.66a2.09,2.09,0,0,0,3,1l11.38-7A2.09,2.09,0,0,0,46,30.53L21.1,1.88A2.51,2.51,0,0,0,16.87,4.47Z"/><path class="cls-2" d="M33.11,41.88l4-2.32c.85,3,1.53,5.58,2.38,8.54l-2.12,1.23C35.94,46.84,34.59,44.44,33.11,41.88Z"/><path class="cls-2" d="M47.18,33.3l-3.9,2.5c2.25,2.11,4.26,3.91,6.51,6l2.06-1.32C50.29,38.08,48.78,35.78,47.18,33.3Z"/><path class="cls-2" d="M38.88,39c1-.63,2.23-1.26,3.36-1.94.34,1.28.49,2.24.83,3.52l-1.79,1Z"/></g></g></svg>