<svg xmlns="http://www.w3.org/2000/svg" viewBox="0 0 86.28 48.55"><defs><style>.cls-1{fill:#a7a9ac;stroke:#231f20;stroke-linejoin:round;stroke-width:2px;}</style></defs><g id="Layer_2" data-name="Layer 2"><g id="Layer_1-2" data-name="Layer 1"><path class="cls-1" d="M1,35.48C5.12,30.8,9.45,26.3,16.09,26.3c5.39.28,10,5.18,19.37,7.52,7,1.75,10.36.91,16.46-1.72,2.39-1,6.72-4.59,11.37-14l7.42,5.17C69.4,27.42,63.63,37.36,55,42.52A26,26,0,0,1,31.69,44.1c-7.28-2.89-11.14-6.56-16.52-6.68C8.35,37.26,4.65,42.94,1.05,47.55,1.05,44.32,1,40.44,1,35.48Z"/><path class="cls-1" d="M15.53,26.31a6.25,6.25,0,0,1,3.59,6.41,6.47,6.47,0,0,1-3.64,4.71"/><path class="cls-1" d="M31.85,32.73A6.21,6.21,0,0,1,31.48,44"/><path class="cls-1" d="M48,33.63a7.55,7.55,0,0,1,4.54,3.58,8.08,8.08,0,0,1,.47,6.39"/><path class="cls-1" d="M60.47,23.2a5.05,5.05,0,0,1,5.87-.38,5.33,5.33,0,0,1,2.39,4.82"/><path class="cls-1" d="M71.43,2C67.66-.69,61,2.52,59.32,5.58c-2.13,4-1.07,10.51,3.61,13.21l7.78,4.46a9.39,9.39,0,0,0,12.81-2.46,10,10,0,0,0-2-13.48L76.4,16.17q-4.68-2.73-9.34-5.48C68.32,8,69.93,5,71.43,2Z"/></g></g></svg>