<svg xmlns="http://www.w3.org/2000/svg" viewBox="0 0 102.74 63.52"><defs><style>.cls-1{fill:#a7a9ac;stroke:#231f20;stroke-miterlimit:10;stroke-width:5px;}</style></defs><g id="Layer_2" data-name="Layer 2"><g id="Layer_1-2" data-name="Layer 1"><rect class="cls-1" x="3.21" y="15.13" width="33.4" height="6.19" transform="translate(-5.31 8.62) rotate(-21.63)"/><rect class="cls-1" x="43.7" y="14.45" width="28.06" height="6.19" transform="translate(104.26 55.96) rotate(-157.37)"/><circle class="cls-1" cx="41.15" cy="10.27" r="7.77"/><rect class="cls-1" x="3.66" y="41.83" width="33.4" height="6.19" transform="translate(18.86 -4.38) rotate(22.63)"/><rect class="cls-1" x="44.13" y="43.17" width="28.06" height="6.19" transform="translate(129.28 67.85) rotate(158.37)"/><circle class="cls-1" cx="41.46" cy="53.25" r="7.77"/><path class="cls-1" d="M75,16.55c0,5.61-.09,5.5-.17,14.29l-11.94-.11L63,9.42l37.14.33c0,1.8.09,7,0,10.94-5.15,2.95-8.25,2.75-10.16,1.89-2.89-1.29-3.24-4.13-6.5-5.78C80.68,15.35,77.36,15.85,75,16.55Z"/><path class="cls-1" d="M74.68,48.72c0-5.61,0-5.5.09-14.29l-11.95-.1-.18,21.31L99.78,56c0-1.8.2-7,.24-10.94-5.1-3-8.2-2.89-10.13-2.07C87,44.19,86.58,47,83.29,48.62,80.38,50,77.06,49.46,74.68,48.72Z"/></g></g></svg>