<svg xmlns="http://www.w3.org/2000/svg" xmlns:xlink="http://www.w3.org/1999/xlink" viewBox="0 0 105.23 75.49"><defs><style>.cls-1{fill:#fff;}.cls-1,.cls-2{stroke:#231f20;stroke-miterlimit:10;}.cls-2{stroke-width:2px;fill:url(#New_Gradient_Swatch_1);}</style><linearGradient id="New_Gradient_Swatch_1" x1="1" y1="37.74" x2="104.23" y2="37.74" gradientUnits="userSpaceOnUse"><stop offset="0" stop-color="#bcbec0"/><stop offset="0.57" stop-color="#939598"/></linearGradient></defs><g id="Layer_2" data-name="Layer 2"><g id="Layer_1-2" data-name="Layer 1"><path class="cls-1" d="M45.37,70.82,6.14,42.9c-4-2.85-4-7.46,0-10.31L45.37,4.66a13.39,13.39,0,0,1,14.49,0L99.08,32.59c4,2.85,4,7.46,0,10.31L59.86,70.82A13.35,13.35,0,0,1,45.37,70.82Z"/><path class="cls-2" d="M52.61,74.49a15.22,15.22,0,0,1-8.76-2.58L4.62,44c-4.83-3.44-4.83-9,0-12.47L43.85,3.58A15.22,15.22,0,0,1,52.61,1a15.28,15.28,0,0,1,8.77,2.58L100.6,31.51c4.84,3.44,4.84,9,0,12.47L61.37,71.91A15.22,15.22,0,0,1,52.61,74.49Z"/></g></g></svg>