<svg xmlns="http://www.w3.org/2000/svg" viewBox="0 0 73.16 55.04"><defs><style>.cls-1{fill:#fff;}.cls-2{fill:#231f20;}</style></defs><g id="Layer_2" data-name="Layer 2"><g id="Layer_1-2" data-name="Layer 1"><path class="cls-1" d="M31.45,52.29,3.64,31.38a4.57,4.57,0,0,1,0-7.72L31.45,2.74a9,9,0,0,1,10.26,0l27.8,20.92a4.56,4.56,0,0,1,0,7.72L41.71,52.29A9,9,0,0,1,31.45,52.29Z"/><path class="cls-2" d="M36.58,55a10.34,10.34,0,0,1-6.21-1.94L2.57,32.19c-3.43-2.58-3.43-6.77,0-9.34L30.37,1.93a11,11,0,0,1,12.42,0l27.8,20.92c3.42,2.57,3.42,6.76,0,9.34L42.79,53.1A10.36,10.36,0,0,1,36.58,55Zm0-52.75a6.83,6.83,0,0,0-4.06,1.26L4.72,24.47a3.61,3.61,0,0,0,0,6.1l27.8,20.91a7.11,7.11,0,0,0,8.11,0L68.44,30.57a3.61,3.61,0,0,0,0-6.1L40.63,3.55A6.77,6.77,0,0,0,36.58,2.29Z"/></g></g></svg>