<svg xmlns="http://www.w3.org/2000/svg" viewBox="0 0 53 59"><defs><style>.cls-1{fill:#fff;}</style></defs><g id="Layer_2" data-name="Layer 2"><g id="Layer_1-2" data-name="Layer 1"><path class="cls-1" d="M26.5,57A24.53,24.53,0,0,1,2,32.5V6.93A4.93,4.93,0,0,1,6.93,2H46.07A4.93,4.93,0,0,1,51,6.93V32.5A24.53,24.53,0,0,1,26.5,57Z"/><path d="M46.07,4A2.93,2.93,0,0,1,49,6.93V32.5a22.5,22.5,0,0,1-45,0V6.93A2.93,2.93,0,0,1,6.93,4H46.07m0-4H6.93A6.93,6.93,0,0,0,0,6.93V32.5A26.49,26.49,0,0,0,26.5,59h0A26.49,26.49,0,0,0,53,32.5V6.93A6.93,6.93,0,0,0,46.07,0Z"/></g></g></svg>