<svg xmlns="http://www.w3.org/2000/svg" viewBox="0 0 58.15 58.15"><defs><style>.cls-1{fill:#fff;}</style></defs><g id="Layer_2" data-name="Layer 2"><g id="Layer_1-2" data-name="Layer 1"><path class="cls-1" d="M29.39,56.15a5.47,5.47,0,0,1-3.89-1.62L3.61,32.65a5.53,5.53,0,0,1,0-7.79L24.86,3.61a5.52,5.52,0,0,1,7.79,0L54.53,25.5a5.5,5.5,0,0,1,0,7.78L33.28,54.53A5.47,5.47,0,0,1,29.39,56.15Z"/><path d="M28.76,4a3.48,3.48,0,0,1,2.48,1L53.12,26.91a3.51,3.51,0,0,1,0,5L31.87,53.12a3.5,3.5,0,0,1-5,0L5,31.24a3.51,3.51,0,0,1,0-5L26.28,5a3.45,3.45,0,0,1,2.48-1m0-4a7.45,7.45,0,0,0-5.31,2.2L2.2,23.45a7.5,7.5,0,0,0,0,10.61L24.08,56A7.51,7.51,0,0,0,34.7,56L56,34.7a7.51,7.51,0,0,0,0-10.62L34.06,2.2A7.44,7.44,0,0,0,28.76,0Z"/></g></g></svg>