<svg xmlns="http://www.w3.org/2000/svg" viewBox="0 0 56.96 90.75"><defs><style>.cls-1,.cls-3{fill:#a7a9ac;}.cls-2{fill:#231f20;}.cls-3{stroke:#231f20;stroke-miterlimit:10;stroke-width:3.24px;}</style></defs><g id="Layer_2" data-name="Layer 2"><g id="Layer_1-2" data-name="Layer 1"><rect class="cls-1" x="27.97" y="6.08" width="22.94" height="22.77" transform="translate(68.48 49.37) rotate(-156.2)"/><path class="cls-2" d="M21.93,24.2,46.28,34.94,57,10.74,32.6,0Zm22.48,5.9L26.78,22.32l7.7-17.48,17.63,7.78Z"/><rect class="cls-1" x="21.34" y="29.57" width="16.7" height="21.28" transform="translate(40.63 88.98) rotate(-156.2)"/><path class="cls-2" d="M15.34,47.51,34,55.73,44.05,32.9,25.41,24.68ZM32.1,50.89,20.18,45.63l7.1-16.11L39.2,34.78Z"/><rect class="cls-1" x="14.99" y="50.32" width="10.04" height="22.41" transform="translate(13.5 125.89) rotate(-156.2)"/><path class="cls-2" d="M8.48,70.69,21,76.23,31.55,52.36,19,46.82Zm10.66.69-5.82-2.57,7.56-17.14,5.83,2.57Z"/><path class="cls-3" d="M26.35,89.13H1.62C1.62,74,9.1,71.31,14.7,71.38S26.35,76.13,26.35,89.13Z"/></g></g></svg>