<svg xmlns="http://www.w3.org/2000/svg" viewBox="0 0 62.73 59.04"><defs><style>.cls-1{fill:#a7a9ac;stroke:#231f20;stroke-miterlimit:10;stroke-width:2px;}</style></defs><g id="Layer_2" data-name="Layer 2"><g id="Layer_1-2" data-name="Layer 1"><path class="cls-1" d="M7.62,1c2.64,0,21.79-1.32,36,13.65C55.31,27.06,55.67,42,55.67,45.4H46.48a35.29,35.29,0,0,0-10-24.15C24.71,9.42,9.57,10.88,7.62,10.88L1,10.85V1Z"/><path class="cls-1" d="M51.14,45.4c6.3,0,10.59,6.32,10.59,12.64H39.33C39.33,50.8,44.88,45.4,51.14,45.4Z"/><path class="cls-1" d="M44.92,35.44a8.31,8.31,0,0,0,5.09.4,8.42,8.42,0,0,0,4-2.33"/><path class="cls-1" d="M37.62,22.42a6.24,6.24,0,0,0,5.5-1.5A6.13,6.13,0,0,0,44.82,16"/><path class="cls-1" d="M23.3,13a5.55,5.55,0,0,0,4.95-3.42,5.52,5.52,0,0,0-.82-5.49"/></g></g></svg>