<svg xmlns="http://www.w3.org/2000/svg" viewBox="0 0 100.72 94.91"><defs><style>.cls-1{fill:#a7a9ac;stroke:#231f20;stroke-miterlimit:10;stroke-width:5px;}</style></defs><g id="Layer_2" data-name="Layer 2"><g id="Layer_1-2" data-name="Layer 1"><path class="cls-1" d="M12.94,2.55c4.16,0,34.34-2.08,56.7,21.52,18.47,19.5,19,43.11,19,48.42H74.19c0-4-.65-23-15.73-38.08C39.87,15.77,16,18.07,12.94,18.07L2.5,18V2.5C4.21,2.5,10.76,2.55,12.94,2.55Z"/><path class="cls-1" d="M81.53,72.49c9.94,0,16.69,10,16.69,19.92H62.91C62.91,81,71.67,72.49,81.53,72.49Z"/><path class="cls-1" d="M71.72,56.78a13,13,0,0,0,14.4-3"/><path class="cls-1" d="M60.22,36.26a9.83,9.83,0,0,0,8.67-2.36,9.65,9.65,0,0,0,2.68-7.7"/><path class="cls-1" d="M37.65,21.37a8.64,8.64,0,0,0,6.52-14"/></g></g></svg>