<svg xmlns="http://www.w3.org/2000/svg" viewBox="0 0 31.12 49.51"><defs><style>.cls-1,.cls-3{fill:#a7a9ac;}.cls-2{fill:#231f20;}.cls-3{stroke:#231f20;stroke-miterlimit:10;stroke-width:2px;}</style></defs><g id="Layer_2" data-name="Layer 2"><g id="Layer_1-2" data-name="Layer 1"><rect class="cls-1" x="3.29" y="3.31" width="12.49" height="12.4" transform="translate(-3.03 4.66) rotate(-23.8)"/><path class="cls-2" d="M19.07,13.17,5.81,19,0,5.85,13.26,0ZM6.83,16.38l9.6-4.23-4.2-9.51L2.64,6.87Z"/><rect class="cls-1" x="10.3" y="16.09" width="9.09" height="11.58" transform="translate(-7.57 7.85) rotate(-23.8)"/><path class="cls-2" d="M22.66,25.86,12.51,30.34,7,17.91l10.14-4.48ZM13.53,27.7,20,24.84l-3.87-8.77L9.66,18.93Z"/><rect class="cls-1" x="17.38" y="27.39" width="5.46" height="12.2" transform="translate(-11.8 10.96) rotate(-23.8)"/><path class="cls-2" d="M26.39,38.48l-6.83,3-5.73-13,6.83-3Zm-5.81.37,3.17-1.39-4.11-9.34-3.17,1.4Z"/><path class="cls-3" d="M16.66,48.51H30.12c0-8.24-4.07-9.7-7.12-9.66S16.66,41.44,16.66,48.51Z"/></g></g></svg>