<svg xmlns="http://www.w3.org/2000/svg" xmlns:xlink="http://www.w3.org/1999/xlink" viewBox="0 0 102.74 63.52"><defs><style>.cls-1{fill:none;}.cls-2{clip-path:url(#clip-path);}.cls-3{fill:#929497;}.cls-4{fill:#808184;}.cls-5{stroke:#231f20;stroke-miterlimit:10;stroke-width:5px;fill:url(#New_Pattern_Swatch_2);}</style><clipPath id="clip-path"><rect class="cls-1" width="9.61" height="9.61"/></clipPath><pattern id="New_Pattern_Swatch_2" data-name="New Pattern Swatch 2" width="9.61" height="9.61" patternUnits="userSpaceOnUse" viewBox="0 0 9.61 9.61"><rect class="cls-1" width="9.61" height="9.61"/><g class="cls-2"><rect class="cls-3" x="-4.92" y="-4.81" width="20.53" height="20.53"/><path class="cls-1" d="M-4-2.38"/><path class="cls-4" d="M-4.92-1.81a6.24,6.24,0,0,1,6,0,6.24,6.24,0,0,1-6,0Z"/><path class="cls-4" d="M0,3.18a6.24,6.24,0,0,1,6,0,6.26,6.26,0,0,1-6,0Z"/><path class="cls-4" d="M3-4.81a6.24,6.24,0,0,1,0,6,6.24,6.24,0,0,1,0-6Z"/><path class="cls-4" d="M-1.92,0a6.24,6.24,0,0,1,0,6,6.24,6.24,0,0,1,0-6Z"/><path class="cls-1" d="M5.63-2.38"/><path class="cls-4" d="M4.69-1.81a6.24,6.24,0,0,1,6,0,6.24,6.24,0,0,1-6,0Z"/><path class="cls-4" d="M9.61,3.18a6.24,6.24,0,0,1,6,0,6.26,6.26,0,0,1-6,0Z"/><path class="cls-4" d="M12.61-4.81a6.24,6.24,0,0,1,0,6,6.24,6.24,0,0,1,0-6Z"/><path class="cls-4" d="M7.69,0a6.24,6.24,0,0,1,0,6,6.24,6.24,0,0,1,0-6Z"/><path class="cls-1" d="M-4,7.19"/><path class="cls-4" d="M-4.92,7.76a6.24,6.24,0,0,1,6,0,6.26,6.26,0,0,1-6,0Z"/><path class="cls-4" d="M0,12.74a6.29,6.29,0,0,1,6,0,6.24,6.24,0,0,1-6,0Z"/><path class="cls-4" d="M3,4.76a6.24,6.24,0,0,1,0,6,6.24,6.24,0,0,1,0-6Z"/><path class="cls-4" d="M-1.92,9.57a6.24,6.24,0,0,1,0,6,6.24,6.24,0,0,1,0-6Z"/><path class="cls-1" d="M5.63,7.19"/><path class="cls-4" d="M4.69,7.76a6.24,6.24,0,0,1,6,0,6.26,6.26,0,0,1-6,0Z"/><path class="cls-4" d="M9.61,12.74a6.29,6.29,0,0,1,6,0,6.24,6.24,0,0,1-6,0Z"/><path class="cls-4" d="M12.61,4.76a6.24,6.24,0,0,1,0,6,6.24,6.24,0,0,1,0-6Z"/><path class="cls-4" d="M7.69,9.57a6.24,6.24,0,0,1,0,6,6.24,6.24,0,0,1,0-6Z"/></g></pattern></defs><g id="Layer_2" data-name="Layer 2"><g id="Layer_1-2" data-name="Layer 1"><polygon class="cls-5" points="36.58 14.94 5.53 27.25 3.25 21.5 34.3 9.19 36.58 14.94"/><polygon class="cls-5" points="43.59 15.01 69.49 25.8 71.87 20.09 45.97 9.29 43.59 15.01"/><circle class="cls-5" cx="41.15" cy="10.27" r="7.77"/><polygon class="cls-5" points="36.97 48.5 6.14 35.65 3.75 41.36 34.59 54.21 36.97 48.5"/><polygon class="cls-5" points="43.98 48.56 70.06 38.22 72.34 43.98 46.26 54.32 43.98 48.56"/><circle class="cls-5" cx="41.46" cy="53.25" r="7.77"/><path class="cls-5" d="M75,16.55c0,5.61-.09,5.5-.17,14.29l-11.94-.11L63,9.42l37.14.33c0,1.8.09,7,0,10.94-5.15,2.95-8.25,2.75-10.16,1.89-2.89-1.29-3.24-4.13-6.5-5.78C80.68,15.35,77.36,15.85,75,16.55Z"/><path class="cls-5" d="M74.68,48.72c0-5.61,0-5.5.09-14.29l-11.95-.1-.18,21.31L99.78,56c0-1.8.2-7,.24-10.94-5.1-3-8.2-2.89-10.13-2.07C87,44.19,86.58,47,83.29,48.62,80.38,50,77.06,49.46,74.68,48.72Z"/></g></g></svg>