<svg xmlns="http://www.w3.org/2000/svg" xmlns:xlink="http://www.w3.org/1999/xlink" viewBox="0 0 101.64 95.78"><defs><style>.cls-1{fill:none;}.cls-2{clip-path:url(#clip-path);}.cls-3{fill:#929497;}.cls-4{fill:#808184;}.cls-5{stroke:#231f20;stroke-linejoin:round;stroke-width:5px;fill:url(#New_Pattern_Swatch_2);}</style><clipPath id="clip-path"><rect class="cls-1" width="9.61" height="9.61"/></clipPath><pattern id="New_Pattern_Swatch_2" data-name="New Pattern Swatch 2" width="9.61" height="9.61" patternUnits="userSpaceOnUse" viewBox="0 0 9.61 9.61"><rect class="cls-1" width="9.61" height="9.61"/><g class="cls-2"><rect class="cls-3" x="-4.92" y="-4.81" width="20.53" height="20.53"/><path class="cls-1" d="M-4-2.38"/><path class="cls-4" d="M-4.92-1.81a6.24,6.24,0,0,1,6,0,6.24,6.24,0,0,1-6,0Z"/><path class="cls-4" d="M0,3.18a6.24,6.24,0,0,1,6,0,6.26,6.26,0,0,1-6,0Z"/><path class="cls-4" d="M3-4.81a6.24,6.24,0,0,1,0,6,6.24,6.24,0,0,1,0-6Z"/><path class="cls-4" d="M-1.92,0a6.24,6.24,0,0,1,0,6,6.24,6.24,0,0,1,0-6Z"/><path class="cls-1" d="M5.63-2.38"/><path class="cls-4" d="M4.69-1.81a6.24,6.24,0,0,1,6,0,6.24,6.24,0,0,1-6,0Z"/><path class="cls-4" d="M9.61,3.18a6.24,6.24,0,0,1,6,0,6.26,6.26,0,0,1-6,0Z"/><path class="cls-4" d="M12.61-4.81a6.24,6.24,0,0,1,0,6,6.24,6.24,0,0,1,0-6Z"/><path class="cls-4" d="M7.69,0a6.24,6.24,0,0,1,0,6,6.24,6.24,0,0,1,0-6Z"/><path class="cls-1" d="M-4,7.19"/><path class="cls-4" d="M-4.92,7.76a6.24,6.24,0,0,1,6,0,6.26,6.26,0,0,1-6,0Z"/><path class="cls-4" d="M0,12.74a6.29,6.29,0,0,1,6,0,6.24,6.24,0,0,1-6,0Z"/><path class="cls-4" d="M3,4.76a6.24,6.24,0,0,1,0,6,6.24,6.24,0,0,1,0-6Z"/><path class="cls-4" d="M-1.92,9.57a6.24,6.24,0,0,1,0,6,6.24,6.24,0,0,1,0-6Z"/><path class="cls-1" d="M5.63,7.19"/><path class="cls-4" d="M4.69,7.76a6.24,6.24,0,0,1,6,0,6.26,6.26,0,0,1-6,0Z"/><path class="cls-4" d="M9.61,12.74a6.29,6.29,0,0,1,6,0,6.24,6.24,0,0,1-6,0Z"/><path class="cls-4" d="M12.61,4.76a6.24,6.24,0,0,1,0,6,6.24,6.24,0,0,1,0-6Z"/><path class="cls-4" d="M7.69,9.57a6.24,6.24,0,0,1,0,6,6.24,6.24,0,0,1,0-6Z"/></g></pattern></defs><g id="Layer_2" data-name="Layer 2"><g id="Layer_1-2" data-name="Layer 1"><rect class="cls-5" x="2.5" y="32.6" width="59.98" height="9.06"/><path class="cls-5" d="M86.5,84.45h0a9.09,9.09,0,0,1-12.33-3.59L42.69,23.53A9.09,9.09,0,0,1,46.28,11.2h0a9.09,9.09,0,0,1,12.33,3.59L90.09,72.12A9.09,9.09,0,0,1,86.5,84.45Z"/><polygon class="cls-5" points="66.85 12.6 59.84 14.61 61.39 17.43 66.85 12.6"/><polygon class="cls-5" points="72.74 23.77 65.73 25.79 67.28 28.6 72.74 23.77"/><polygon class="cls-5" points="78.81 34.84 71.81 36.85 73.36 39.67 78.81 34.84"/><polygon class="cls-5" points="84.83 45.95 77.83 47.96 79.37 50.78 84.83 45.95"/><polygon class="cls-5" points="90.66 56.51 83.66 58.52 85.21 61.33 90.66 56.51"/><polygon class="cls-5" points="96.35 67.14 89.35 69.15 90.9 71.97 96.35 67.14"/><polygon class="cls-5" points="35.87 29.07 41.32 24.25 42.87 27.06 35.87 29.07"/><polygon class="cls-5" points="42.34 4.03 47.17 9.48 44.36 11.03 42.34 4.03"/><polygon class="cls-5" points="55.73 2.5 55.29 9.77 52.2 8.87 55.73 2.5"/><polygon class="cls-5" points="34.06 14.79 41.33 15.23 40.43 18.32 34.06 14.79"/><polygon class="cls-5" points="90.67 92.07 88.66 85.07 85.84 86.61 90.67 92.07"/><polygon class="cls-5" points="99.14 81.59 92.77 78.06 91.87 81.15 99.14 81.59"/><polygon class="cls-5" points="77.14 93.28 80.67 86.91 77.58 86.01 77.14 93.28"/><polygon class="cls-5" points="42.13 40.04 47.59 35.21 49.13 38.03 42.13 40.04"/><polygon class="cls-5" points="48.21 51.11 53.66 46.28 55.21 49.1 48.21 51.11"/><polygon class="cls-5" points="54.35 62.15 59.8 57.32 61.35 60.13 54.35 62.15"/><polygon class="cls-5" points="60.13 72.73 65.58 67.9 67.13 70.72 60.13 72.73"/><polygon class="cls-5" points="66.04 83.24 71.5 78.41 73.05 81.23 66.04 83.24"/></g></g></svg>