<svg xmlns="http://www.w3.org/2000/svg" xmlns:xlink="http://www.w3.org/1999/xlink" viewBox="0 0 142.53 102.91"><defs><style>.cls-1,.cls-2{stroke:#231f20;stroke-miterlimit:10;stroke-width:5px;}.cls-1{fill:url(#Gold_Gradient);}.cls-2{fill:url(#Gold_Gradient-2);}.cls-3{fill:url(#Right_Shadow);}.cls-4{fill:url(#Right_Shadow-2);}</style><linearGradient id="Gold_Gradient" x1="5.36" y1="51.45" x2="137.17" y2="51.45" gradientUnits="userSpaceOnUse"><stop offset="0" stop-color="#ffc654"/><stop offset="1" stop-color="#c78500"/></linearGradient><linearGradient id="Gold_Gradient-2" x1="2.5" y1="51.45" x2="140.03" y2="51.45" xlink:href="#Gold_Gradient"/><linearGradient id="Right_Shadow" x1="4.53" y1="52.12" x2="136.35" y2="52.12" gradientUnits="userSpaceOnUse"><stop offset="0" stop-color="#130c0e" stop-opacity="0"/><stop offset="1" stop-color="#130c0c" stop-opacity="0.4"/></linearGradient><linearGradient id="Right_Shadow-2" x1="1.67" y1="52.12" x2="139.2" y2="52.12" xlink:href="#Right_Shadow"/></defs><g id="Layer_2" data-name="Layer 2"><g id="Layer_1-2" data-name="Layer 1"><path class="cls-1" d="M61.62,95.53,9.35,58.32C4,54.53,4,48.38,9.35,44.59L61.62,7.38c5.32-3.79,14-3.79,19.29,0l52.27,37.21c5.32,3.79,5.32,9.94,0,13.73L80.91,95.53C75.58,99.32,66.94,99.32,61.62,95.53Z"/><path class="cls-2" d="M71.26,100.41A20.3,20.3,0,0,1,59.59,97L7.33,59.76c-6.44-4.58-6.44-12,0-16.62L59.59,5.94A20.22,20.22,0,0,1,71.26,2.5,20.26,20.26,0,0,1,82.94,5.94l52.26,37.2c6.44,4.59,6.44,12,0,16.62L82.93,97A20.27,20.27,0,0,1,71.26,100.41Z"/><path class="cls-3" d="M60.79,96.19,8.53,59C3.2,55.19,3.2,49,8.53,45.25L60.79,8c5.33-3.79,14-3.79,19.3,0l52.26,37.21c5.33,3.79,5.33,9.94,0,13.73L80.09,96.19C74.76,100,66.12,100,60.79,96.19Z"/><path class="cls-4" d="M70.44,101.07a20.2,20.2,0,0,1-11.67-3.44L6.5,60.43c-6.43-4.59-6.43-12,0-16.62L58.77,6.6A20.27,20.27,0,0,1,70.44,3.16,20.3,20.3,0,0,1,82.11,6.6l52.26,37.21c6.44,4.58,6.44,12,0,16.62L82.11,97.63A20.22,20.22,0,0,1,70.44,101.07Z"/></g></g></svg>