<svg xmlns="http://www.w3.org/2000/svg" xmlns:xlink="http://www.w3.org/1999/xlink" viewBox="0 0 106.5 95.79"><defs><style>.cls-1,.cls-2{stroke:#231f20;stroke-miterlimit:10;stroke-width:5px;}.cls-1{fill:url(#Gold_Gradient);}.cls-2{fill:url(#Right_Shadow);}</style><linearGradient id="Gold_Gradient" x1="3.33" y1="47.56" x2="104" y2="47.56" gradientUnits="userSpaceOnUse"><stop offset="0" stop-color="#ffc654"/><stop offset="1" stop-color="#c78500"/></linearGradient><linearGradient id="Right_Shadow" x1="2.5" y1="48.23" x2="103.17" y2="48.23" gradientUnits="userSpaceOnUse"><stop offset="0" stop-color="#130c0e" stop-opacity="0"/><stop offset="1" stop-color="#130c0c" stop-opacity="0.4"/></linearGradient></defs><g id="Layer_2" data-name="Layer 2"><g id="Layer_1-2" data-name="Layer 1"><path class="cls-1" d="M44.06,87.08,4.83,19.13A11.08,11.08,0,0,1,14.43,2.5H92.89a11.08,11.08,0,0,1,9.6,16.63l-39.23,68A11.09,11.09,0,0,1,44.06,87.08Z"/><path class="cls-2" d="M43.23,87.74,4,19.79A11.09,11.09,0,0,1,13.6,3.16H92.07a11.09,11.09,0,0,1,9.6,16.63L62.44,87.74A11.09,11.09,0,0,1,43.23,87.74Z"/></g></g></svg>