<svg xmlns="http://www.w3.org/2000/svg" xmlns:xlink="http://www.w3.org/1999/xlink" viewBox="0 0 102.74 63.52"><defs><style>.cls-1,.cls-4,.cls-5{fill:none;}.cls-2{clip-path:url(#clip-path);}.cls-3{fill:#bbbdbf;}.cls-4{stroke:#d0d2d3;}.cls-4,.cls-5,.cls-6{stroke-miterlimit:10;}.cls-4,.cls-5{stroke-width:0.25px;}.cls-5{stroke:#a6a8ab;}.cls-6{stroke:#231f20;stroke-width:5px;fill:url(#Brushed_Silver);}</style><clipPath id="clip-path"><rect class="cls-1" width="11.63" height="8.29"/></clipPath><pattern id="Brushed_Silver" data-name="Brushed Silver" width="11.63" height="8.29" patternUnits="userSpaceOnUse" viewBox="0 0 11.63 8.29"><rect class="cls-1" width="11.63" height="8.29"/><g class="cls-2"><rect class="cls-3" x="-13.25" y="-26.54" width="46.43" height="42.83"/><line class="cls-4" x1="-8.08" y1="0.63" x2="4.83" y2="0.63"/><line class="cls-4" x1="-6.45" y1="2.29" x2="6.45" y2="2.29"/><line class="cls-4" x1="-10.03" y1="4.34" x2="2.87" y2="4.34"/><line class="cls-4" x1="-7.82" y1="5.81" x2="5.09" y2="5.81"/><line class="cls-4" x1="-11.11" y1="7.56" x2="1.8" y2="7.56"/><line class="cls-5" x1="-8.55" y1="6.68" x2="4.36" y2="6.68"/><line class="cls-5" x1="-6.84" y1="5.07" x2="6.07" y2="5.07"/><line class="cls-5" x1="-9.21" y1="3.07" x2="3.7" y2="3.07"/><line class="cls-5" x1="-4.87" y1="1.27" x2="8.04" y2="1.27"/><line class="cls-4" x1="7.09" y1="0.63" x2="20" y2="0.63"/><line class="cls-4" x1="8.71" y1="2.29" x2="21.62" y2="2.29"/><line class="cls-4" x1="5.13" y1="4.34" x2="18.04" y2="4.34"/><line class="cls-4" x1="7.35" y1="5.81" x2="20.26" y2="5.81"/><line class="cls-4" x1="4.06" y1="7.56" x2="16.97" y2="7.56"/><line class="cls-5" x1="6.62" y1="6.68" x2="19.53" y2="6.68"/><line class="cls-5" x1="8.33" y1="5.07" x2="21.23" y2="5.07"/><line class="cls-5" x1="5.96" y1="3.07" x2="18.87" y2="3.07"/><line class="cls-5" x1="10.3" y1="1.27" x2="23.2" y2="1.27"/></g></pattern></defs><g id="Layer_2" data-name="Layer 2"><g id="Layer_1-2" data-name="Layer 1"><polygon class="cls-6" points="36.58 14.94 5.53 27.25 3.25 21.5 34.3 9.19 36.58 14.94"/><polygon class="cls-6" points="43.59 15.01 69.49 25.8 71.87 20.09 45.97 9.29 43.59 15.01"/><circle class="cls-6" cx="41.15" cy="10.27" r="7.77"/><polygon class="cls-6" points="36.97 48.5 6.14 35.65 3.75 41.36 34.59 54.21 36.97 48.5"/><polygon class="cls-6" points="43.98 48.56 70.06 38.22 72.34 43.98 46.26 54.32 43.98 48.56"/><circle class="cls-6" cx="41.46" cy="53.25" r="7.77"/><path class="cls-6" d="M75,16.55c0,5.61-.09,5.5-.17,14.29l-11.94-.11L63,9.42l37.14.33c0,1.8.09,7,0,10.94-5.15,2.95-8.25,2.75-10.16,1.89-2.89-1.29-3.24-4.13-6.5-5.78C80.68,15.35,77.36,15.85,75,16.55Z"/><path class="cls-6" d="M74.68,48.72c0-5.61,0-5.5.09-14.29l-11.95-.1-.18,21.31L99.78,56c0-1.8.2-7,.24-10.94-5.1-3-8.2-2.89-10.13-2.07C87,44.19,86.58,47,83.29,48.62,80.38,50,77.06,49.46,74.68,48.72Z"/></g></g></svg>