<svg xmlns="http://www.w3.org/2000/svg" xmlns:xlink="http://www.w3.org/1999/xlink" viewBox="0 0 117.33 67.04"><defs><style>.cls-1,.cls-4,.cls-5{fill:none;}.cls-2{clip-path:url(#clip-path);}.cls-3{fill:#bbbdbf;}.cls-4{stroke:#d0d2d3;}.cls-4,.cls-5{stroke-miterlimit:10;stroke-width:0.25px;}.cls-5{stroke:#a6a8ab;}.cls-6{stroke:#231f20;stroke-linejoin:round;stroke-width:5px;fill:url(#Brushed_Silver);}</style><clipPath id="clip-path"><rect class="cls-1" width="11.63" height="8.29"/></clipPath><pattern id="Brushed_Silver" data-name="Brushed Silver" width="11.63" height="8.29" patternUnits="userSpaceOnUse" viewBox="0 0 11.63 8.29"><rect class="cls-1" width="11.63" height="8.29"/><g class="cls-2"><rect class="cls-3" x="-13.25" y="-26.54" width="46.43" height="42.83"/><line class="cls-4" x1="-8.08" y1="0.63" x2="4.83" y2="0.63"/><line class="cls-4" x1="-6.45" y1="2.29" x2="6.45" y2="2.29"/><line class="cls-4" x1="-10.03" y1="4.34" x2="2.87" y2="4.34"/><line class="cls-4" x1="-7.82" y1="5.81" x2="5.09" y2="5.81"/><line class="cls-4" x1="-11.11" y1="7.56" x2="1.8" y2="7.56"/><line class="cls-5" x1="-8.55" y1="6.68" x2="4.36" y2="6.68"/><line class="cls-5" x1="-6.84" y1="5.07" x2="6.07" y2="5.07"/><line class="cls-5" x1="-9.21" y1="3.07" x2="3.7" y2="3.07"/><line class="cls-5" x1="-4.87" y1="1.27" x2="8.04" y2="1.27"/><line class="cls-4" x1="7.09" y1="0.63" x2="20" y2="0.63"/><line class="cls-4" x1="8.71" y1="2.29" x2="21.62" y2="2.29"/><line class="cls-4" x1="5.13" y1="4.34" x2="18.04" y2="4.34"/><line class="cls-4" x1="7.35" y1="5.81" x2="20.26" y2="5.81"/><line class="cls-4" x1="4.06" y1="7.56" x2="16.97" y2="7.56"/><line class="cls-5" x1="6.62" y1="6.68" x2="19.53" y2="6.68"/><line class="cls-5" x1="8.33" y1="5.07" x2="21.23" y2="5.07"/><line class="cls-5" x1="5.96" y1="3.07" x2="18.87" y2="3.07"/><line class="cls-5" x1="10.3" y1="1.27" x2="23.2" y2="1.27"/></g></pattern></defs><g id="Layer_2" data-name="Layer 2"><g id="Layer_1-2" data-name="Layer 1"><path class="cls-6" d="M2.5,48.45C8,42.22,13.76,36.21,22.61,36.21c7.18.38,13.32,6.91,25.82,10,9.31,2.33,13.81,1.21,21.93-2.3,3.19-1.37,9-6.11,15.16-18.68l9.89,6.9C93.66,37.71,86,51,74.51,57.84c-14.13,8.46-27.37,3.59-31.11,2.1-9.7-3.85-14.84-8.75-22-8.91-9.09-.2-14,7.37-18.82,13.51C2.57,60.23,2.5,55.06,2.5,48.45Z"/><path class="cls-6" d="M21.87,36.23a8.32,8.32,0,0,1,4.78,8.55C26.06,49.12,22,51,21.79,51.05"/><path class="cls-6" d="M43.61,44.78a8.36,8.36,0,0,1,4.58,8.12,8.24,8.24,0,0,1-5.06,6.93"/><path class="cls-6" d="M65.19,46a10.08,10.08,0,0,1,6,4.79,10.65,10.65,0,0,1,.62,8.5"/><path class="cls-6" d="M81.75,32.08a6.76,6.76,0,0,1,7.83-.5A7.12,7.12,0,0,1,92.77,38"/><path class="cls-6" d="M96.36,3.86c-5-3.61-14,.67-16.14,4.75-2.83,5.33-1.42,14,4.82,17.6l10.37,5.95a12.51,12.51,0,0,0,17.07-3.29,13.34,13.34,0,0,0-2.64-18q-3.42,5.91-6.86,11.81l-12.44-7.3C92.22,11.81,94.37,7.79,96.36,3.86Z"/></g></g></svg>