<svg xmlns="http://www.w3.org/2000/svg" xmlns:xlink="http://www.w3.org/1999/xlink" viewBox="0 0 104.71 80.75"><defs><style>.cls-1,.cls-4,.cls-5{fill:none;}.cls-2{clip-path:url(#clip-path);}.cls-3{fill:#bbbdbf;}.cls-4{stroke:#d0d2d3;}.cls-4,.cls-5,.cls-6{stroke-miterlimit:10;}.cls-4,.cls-5{stroke-width:0.25px;}.cls-5{stroke:#a6a8ab;}.cls-6{stroke:#231f20;stroke-width:5px;fill:url(#Brushed_Silver);}</style><clipPath id="clip-path"><rect class="cls-1" width="11.63" height="8.29"/></clipPath><pattern id="Brushed_Silver" data-name="Brushed Silver" width="11.63" height="8.29" patternUnits="userSpaceOnUse" viewBox="0 0 11.63 8.29"><rect class="cls-1" width="11.63" height="8.29"/><g class="cls-2"><rect class="cls-3" x="-13.25" y="-26.54" width="46.43" height="42.83"/><line class="cls-4" x1="-8.08" y1="0.63" x2="4.83" y2="0.63"/><line class="cls-4" x1="-6.45" y1="2.29" x2="6.45" y2="2.29"/><line class="cls-4" x1="-10.03" y1="4.34" x2="2.87" y2="4.34"/><line class="cls-4" x1="-7.82" y1="5.81" x2="5.09" y2="5.81"/><line class="cls-4" x1="-11.11" y1="7.56" x2="1.8" y2="7.56"/><line class="cls-5" x1="-8.55" y1="6.68" x2="4.36" y2="6.68"/><line class="cls-5" x1="-6.84" y1="5.07" x2="6.07" y2="5.07"/><line class="cls-5" x1="-9.21" y1="3.07" x2="3.7" y2="3.07"/><line class="cls-5" x1="-4.87" y1="1.27" x2="8.04" y2="1.27"/><line class="cls-4" x1="7.09" y1="0.63" x2="20" y2="0.63"/><line class="cls-4" x1="8.71" y1="2.29" x2="21.62" y2="2.29"/><line class="cls-4" x1="5.13" y1="4.34" x2="18.04" y2="4.34"/><line class="cls-4" x1="7.35" y1="5.81" x2="20.26" y2="5.81"/><line class="cls-4" x1="4.06" y1="7.56" x2="16.97" y2="7.56"/><line class="cls-5" x1="6.62" y1="6.68" x2="19.53" y2="6.68"/><line class="cls-5" x1="8.33" y1="5.07" x2="21.23" y2="5.07"/><line class="cls-5" x1="5.96" y1="3.07" x2="18.87" y2="3.07"/><line class="cls-5" x1="10.3" y1="1.27" x2="23.2" y2="1.27"/></g></pattern></defs><g id="Layer_2" data-name="Layer 2"><g id="Layer_1-2" data-name="Layer 1"><rect class="cls-6" x="2.5" y="29.9" width="57.76" height="11.34"/><path class="cls-6" d="M82,77.47h0a12.44,12.44,0,0,1-16-7.31l-23-61.73a2,2,0,0,1,1.19-2.6l8.59-3.2a2,2,0,0,1,2.6,1.19L82.48,76.46A.78.78,0,0,1,82,77.47Z"/><path class="cls-6" d="M100.67,62.88h0A12.42,12.42,0,0,0,95.76,46L38,14.31a2,2,0,0,0-2.74.8l-4.42,8a2,2,0,0,0,.8,2.74l68,37.3A.77.77,0,0,0,100.67,62.88Z"/></g></g></svg>