<svg xmlns="http://www.w3.org/2000/svg" xmlns:xlink="http://www.w3.org/1999/xlink" viewBox="0 0 66.49 89.79"><defs><style>.cls-1,.cls-2,.cls-3,.cls-4,.cls-5{stroke:#231f20;stroke-miterlimit:10;stroke-width:5px;}.cls-1{fill:url(#Gold_Gradient);}.cls-2{fill:url(#Gold_Gradient-2);}.cls-3{fill:url(#Gold_Gradient-3);}.cls-4{fill:url(#Gold_Gradient-4);}.cls-5{fill:url(#Gold_Gradient-5);}</style><linearGradient id="Gold_Gradient" x1="3.1" y1="41.29" x2="51.41" y2="41.29" gradientUnits="userSpaceOnUse"><stop offset="0" stop-color="#ffc654"/><stop offset="1" stop-color="#c78500"/></linearGradient><linearGradient id="Gold_Gradient-2" x1="20.79" y1="76.16" x2="62.17" y2="76.16" xlink:href="#Gold_Gradient"/><linearGradient id="Gold_Gradient-3" x1="30.62" y1="61.53" x2="45.49" y2="61.53" xlink:href="#Gold_Gradient"/><linearGradient id="Gold_Gradient-4" x1="22.61" y1="45.35" x2="36.85" y2="45.35" xlink:href="#Gold_Gradient"/><linearGradient id="Gold_Gradient-5" x1="12.64" y1="28.99" x2="26.79" y2="28.99" xlink:href="#Gold_Gradient"/></defs><g id="Layer_2" data-name="Layer 2"><g id="Layer_1-2" data-name="Layer 1"><path class="cls-1" d="M3.1,15.83,14.85,4.08l36.56,64L37.92,78.5Z"/><path class="cls-2" d="M30.62,65.37c3.16-.08,6.34-.16,9.54-.21s6.19-.1,9.24-.12c4.26,7.31,8.52,14.87,12.77,22.18-11.4.1-29.36.07-41.38,0q2.49-5.37,5-10.9T30.62,65.37Z"/><path class="cls-3" d="M30.62,65.37l14.87-7.68"/><path class="cls-4" d="M22.61,49.48l14.24-8.26"/><path class="cls-5" d="M12.64,33l14.15-8"/></g></g></svg>