<svg xmlns="http://www.w3.org/2000/svg" xmlns:xlink="http://www.w3.org/1999/xlink" viewBox="0 0 51.11 88.71"><defs><style>.cls-1,.cls-2,.cls-3,.cls-4,.cls-5,.cls-6,.cls-7{stroke:#231f20;stroke-miterlimit:10;stroke-width:5px;}.cls-1{fill:url(#Gold_Gradient);}.cls-2{fill:url(#Gold_Gradient-2);}.cls-3{fill:url(#Gold_Gradient-3);}.cls-4{fill:url(#Gold_Gradient-4);}.cls-5{fill:url(#Gold_Gradient-5);}.cls-6{fill:url(#Gold_Gradient-6);}.cls-7{fill:url(#Gold_Gradient-7);}</style><linearGradient id="Gold_Gradient" x1="6.79" y1="22.68" x2="28.49" y2="22.68" gradientTransform="translate(-7.94 9.58) rotate(-25.01)" gradientUnits="userSpaceOnUse"><stop offset="0" stop-color="#ffc654"/><stop offset="1" stop-color="#c78500"/></linearGradient><linearGradient id="Gold_Gradient-2" x1="22.69" y1="61.44" x2="44.39" y2="61.44" gradientTransform="translate(-22.83 19.94) rotate(-25.01)" xlink:href="#Gold_Gradient"/><linearGradient id="Gold_Gradient-3" x1="22.58" y1="21.72" x2="44.5" y2="21.72" gradientTransform="translate(12.56 -12.29) rotate(25.4)" xlink:href="#Gold_Gradient"/><linearGradient id="Gold_Gradient-4" x1="8.11" y1="62.78" x2="30.03" y2="62.78" gradientTransform="translate(28.77 -2.11) rotate(25.4)" xlink:href="#Gold_Gradient"/><linearGradient id="Gold_Gradient-5" x1="2.5" y1="42.91" x2="16.38" y2="42.91" gradientTransform="matrix(1, 0, 0, 1, 0, 0)" xlink:href="#Gold_Gradient"/><linearGradient id="Gold_Gradient-6" x1="34.73" y1="42.91" x2="48.61" y2="42.91" gradientTransform="matrix(1, 0, 0, 1, 0, 0)" xlink:href="#Gold_Gradient"/><linearGradient id="Gold_Gradient-7" x1="14.7" y1="78.92" x2="38.75" y2="78.92" gradientTransform="matrix(1, 0, 0, 1, 0, 0)" xlink:href="#Gold_Gradient"/></defs><g id="Layer_2" data-name="Layer 2"><g id="Layer_1-2" data-name="Layer 1"><rect class="cls-1" x="14.46" y="3.84" width="6.37" height="37.69" transform="translate(11.24 -5.33) rotate(25.01)"/><rect class="cls-2" x="30.36" y="42.59" width="6.37" height="37.69" transform="translate(29.12 -8.42) rotate(25.01)"/><rect class="cls-3" x="30.36" y="2.87" width="6.37" height="37.69" transform="translate(-6.07 16.48) rotate(-25.4)"/><rect class="cls-4" x="15.89" y="43.94" width="6.37" height="37.69" transform="translate(-25.08 14.25) rotate(-25.4)"/><circle class="cls-5" cx="9.44" cy="42.91" r="6.94"/><circle class="cls-6" cx="41.67" cy="42.91" r="6.94"/><path class="cls-7" d="M14.7,86.21H38.75c0-10.5-6.55-14.56-12-14.59S14.7,75.94,14.7,86.21Z"/></g></g></svg>