<svg xmlns="http://www.w3.org/2000/svg" xmlns:xlink="http://www.w3.org/1999/xlink" viewBox="0 0 76.23 86.06"><defs><style>.cls-1,.cls-2,.cls-3,.cls-4,.cls-5{stroke:#231f20;stroke-miterlimit:10;stroke-width:5px;}.cls-1{fill:url(#Gold_Gradient);}.cls-2{fill:url(#Gold_Gradient-2);}.cls-3{fill:url(#Gold_Gradient-3);}.cls-4{fill:url(#Gold_Gradient-4);}.cls-5{fill:url(#Gold_Gradient-5);}</style><linearGradient id="Gold_Gradient" x1="2.5" y1="34.05" x2="66.63" y2="34.05" gradientUnits="userSpaceOnUse"><stop offset="0" stop-color="#ffc654"/><stop offset="1" stop-color="#c78500"/></linearGradient><linearGradient id="Gold_Gradient-2" x1="47.46" y1="74.58" x2="73.73" y2="74.58" xlink:href="#Gold_Gradient"/><linearGradient id="Gold_Gradient-3" x1="54.01" y1="50.51" x2="64.73" y2="50.51" xlink:href="#Gold_Gradient"/><linearGradient id="Gold_Gradient-4" x1="45.45" y1="28.49" x2="53.93" y2="28.49" xlink:href="#Gold_Gradient"/><linearGradient id="Gold_Gradient-5" x1="28.66" y1="13.18" x2="34.92" y2="13.18" xlink:href="#Gold_Gradient"/></defs><g id="Layer_2" data-name="Layer 2"><g id="Layer_1-2" data-name="Layer 1"><path class="cls-1" d="M10.27,2.54a49.63,49.63,0,0,1,42.19,19.4C66.21,39.53,66.63,60.81,66.63,65.6H55.85c0-3.62-.48-20.69-11.71-34.33A39.5,39.5,0,0,0,10.27,16.53l-7.77,0V2.5Z"/><path class="cls-2" d="M61.31,65.6c7.4,0,12.42,9,12.42,18H47.46C47.46,73.27,54,65.6,61.31,65.6Z"/><path class="cls-3" d="M54,51.44A8.27,8.27,0,0,0,60,52a9.68,9.68,0,0,0,4.74-3.3"/><path class="cls-4" d="M45.45,32.94a6.4,6.4,0,0,0,6.45-2.13,10,10,0,0,0,2-6.95"/><path class="cls-5" d="M28.66,19.52a6.69,6.69,0,0,0,5.8-4.87,9.21,9.21,0,0,0-1-7.8"/></g></g></svg>