<svg xmlns="http://www.w3.org/2000/svg" xmlns:xlink="http://www.w3.org/1999/xlink" viewBox="0 0 79.15 50.97"><defs><style>.cls-1,.cls-2{stroke:#231f20;stroke-linejoin:round;stroke-width:5px;}.cls-1{fill:url(#Gold_Gradient);}.cls-2{fill:url(#Right_Shadow);}</style><linearGradient id="Gold_Gradient" x1="2.5" y1="25.49" x2="76.65" y2="25.49" gradientUnits="userSpaceOnUse"><stop offset="0" stop-color="#ffc654"/><stop offset="1" stop-color="#c78500"/></linearGradient><linearGradient id="Right_Shadow" x1="2.5" y1="25.49" x2="76.65" y2="25.49" gradientUnits="userSpaceOnUse"><stop offset="0" stop-color="#130c0e" stop-opacity="0"/><stop offset="1" stop-color="#130c0c" stop-opacity="0.4"/></linearGradient></defs><g id="Layer_2" data-name="Layer 2"><g id="Layer_1-2" data-name="Layer 1"><path class="cls-1" d="M2.5,33.22c3.64-16.33,17-28.56,32.86-30.46C53.23.62,70.83,12,76.65,30,74.89,32.14,60.3,49.19,36.57,48.45,17.27,47.84,5.09,35.88,2.5,33.22Z"/><path class="cls-2" d="M2.5,33.22c3.64-16.33,17-28.56,32.86-30.46C53.23.62,70.83,12,76.65,30,74.89,32.14,60.3,49.19,36.57,48.45,17.27,47.84,5.09,35.88,2.5,33.22Z"/></g></g></svg>