<svg xmlns="http://www.w3.org/2000/svg" xmlns:xlink="http://www.w3.org/1999/xlink" viewBox="0 0 82.99 75.82"><defs><style>.cls-1,.cls-2{stroke:#231f20;stroke-miterlimit:10;stroke-width:5.5px;}.cls-1{fill:url(#Gold_Gradient);}.cls-2{fill:url(#Right_Shadow);}</style><linearGradient id="Gold_Gradient" x1="2.75" y1="37.91" x2="80.24" y2="37.91" gradientUnits="userSpaceOnUse"><stop offset="0" stop-color="#ffc654"/><stop offset="1" stop-color="#c78500"/></linearGradient><linearGradient id="Right_Shadow" x1="2.75" y1="27.71" x2="80.24" y2="27.71" gradientTransform="matrix(1, 0, 0, -1, 0, 65.62)" gradientUnits="userSpaceOnUse"><stop offset="0" stop-color="#130c0e" stop-opacity="0"/><stop offset="1" stop-color="#130c0c" stop-opacity="0.4"/></linearGradient></defs><g id="Layer_2" data-name="Layer 2"><g id="Layer_1-2" data-name="Layer 1"><path class="cls-1" d="M31,67,4.39,20.93A12.12,12.12,0,0,1,14.89,2.75H68.1A12.12,12.12,0,0,1,78.6,20.93L52,67A12.11,12.11,0,0,1,31,67Z"/><path class="cls-2" d="M31,67,4.39,20.93A12.12,12.12,0,0,1,14.89,2.75H68.1A12.12,12.12,0,0,1,78.6,20.93L52,67A12.11,12.11,0,0,1,31,67Z"/></g></g></svg>