<svg xmlns="http://www.w3.org/2000/svg" xmlns:xlink="http://www.w3.org/1999/xlink" viewBox="0 0 79.33 72.38"><defs><style>.cls-1,.cls-2{stroke:#231f20;stroke-miterlimit:10;stroke-width:5px;}.cls-1{fill:url(#Gold_Gradient);}.cls-2{fill:url(#Right_Shadow);}</style><linearGradient id="Gold_Gradient" x1="2.5" y1="36.19" x2="76.83" y2="36.19" gradientUnits="userSpaceOnUse"><stop offset="0" stop-color="#ffc654"/><stop offset="1" stop-color="#c78500"/></linearGradient><linearGradient id="Right_Shadow" x1="2.5" y1="36.19" x2="76.83" y2="36.19" gradientUnits="userSpaceOnUse"><stop offset="0" stop-color="#130c0e" stop-opacity="0"/><stop offset="1" stop-color="#130c0c" stop-opacity="0.4"/></linearGradient></defs><g id="Layer_2" data-name="Layer 2"><g id="Layer_1-2" data-name="Layer 1"><path class="cls-1" d="M52.64,2.5H26.69A11.21,11.21,0,0,0,17,8.11L4,30.58A11.24,11.24,0,0,0,4,41.8L17,64.27a11.21,11.21,0,0,0,9.71,5.61h26a11.23,11.23,0,0,0,9.72-5.61l13-22.47a11.24,11.24,0,0,0,0-11.22l-13-22.47A11.23,11.23,0,0,0,52.64,2.5Z"/><path class="cls-2" d="M52.64,2.5H26.69A11.21,11.21,0,0,0,17,8.11L4,30.58A11.24,11.24,0,0,0,4,41.8L17,64.27a11.21,11.21,0,0,0,9.71,5.61h26a11.23,11.23,0,0,0,9.72-5.61l13-22.47a11.24,11.24,0,0,0,0-11.22l-13-22.47A11.23,11.23,0,0,0,52.64,2.5Z"/></g></g></svg>