<svg xmlns="http://www.w3.org/2000/svg" xmlns:xlink="http://www.w3.org/1999/xlink" viewBox="0 0 108.34 66.2"><defs><style>.cls-1,.cls-2,.cls-3{stroke:#231f20;stroke-miterlimit:10;stroke-width:5px;}.cls-1{fill:url(#Gold_Gradient);}.cls-2{fill:url(#Gold_Gradient-2);}.cls-3{fill:url(#Right_Shadow);}</style><linearGradient id="Gold_Gradient" x1="48.54" y1="46.34" x2="60.25" y2="46.34" gradientUnits="userSpaceOnUse"><stop offset="0" stop-color="#ffc654"/><stop offset="1" stop-color="#c78500"/></linearGradient><linearGradient id="Gold_Gradient-2" x1="2.94" y1="24.42" x2="105.84" y2="24.42" xlink:href="#Gold_Gradient"/><linearGradient id="Right_Shadow" x1="2.5" y1="24.42" x2="105.4" y2="24.42" gradientUnits="userSpaceOnUse"><stop offset="0" stop-color="#130c0e" stop-opacity="0"/><stop offset="1" stop-color="#130c0c" stop-opacity="0.4"/></linearGradient></defs><g id="Layer_2" data-name="Layer 2"><g id="Layer_1-2" data-name="Layer 1"><rect class="cls-1" x="48.54" y="28.99" width="11.71" height="34.71"/><path class="cls-2" d="M2.94,24.79C2.83,14.24,13.1,5.45,22.43,3.37,34.21.74,37.85,10.26,53.34,10.21S72.12.6,84.42,2.84c9.72,1.77,21.2,10.21,21.42,21.07.22,10.63-10.43,19.64-20,21.78-12.45,2.77-16.43-7.54-32.48-7C38.54,39.13,35.61,48.09,24,46,14.39,44.33,3.05,35.79,2.94,24.79Z"/><path class="cls-3" d="M2.5,24.79C2.39,14.24,12.66,5.45,22,3.37,33.77.74,37.41,10.26,52.9,10.21S71.68.6,84,2.84c9.72,1.77,21.2,10.21,21.42,21.07.22,10.63-10.43,19.64-20,21.78-12.45,2.77-16.43-7.54-32.48-7-14.8.47-17.73,9.43-29.33,7.38C14,44.33,2.61,35.79,2.5,24.79Z"/></g></g></svg>