<svg xmlns="http://www.w3.org/2000/svg" xmlns:xlink="http://www.w3.org/1999/xlink" viewBox="0 0 101.64 95.78"><defs><style>.cls-1,.cls-4,.cls-5{fill:none;}.cls-2{clip-path:url(#clip-path);}.cls-3{fill:#bbbdbf;}.cls-4{stroke:#d0d2d3;}.cls-4,.cls-5{stroke-miterlimit:10;stroke-width:0.25px;}.cls-5{stroke:#a6a8ab;}.cls-6{stroke:#231f20;stroke-linejoin:round;stroke-width:5px;fill:url(#Brushed_Silver);}</style><clipPath id="clip-path"><rect class="cls-1" width="11.63" height="8.29"/></clipPath><pattern id="Brushed_Silver" data-name="Brushed Silver" width="11.63" height="8.29" patternUnits="userSpaceOnUse" viewBox="0 0 11.63 8.29"><rect class="cls-1" width="11.63" height="8.29"/><g class="cls-2"><rect class="cls-3" x="-13.25" y="-26.54" width="46.43" height="42.83"/><line class="cls-4" x1="-8.08" y1="0.63" x2="4.83" y2="0.63"/><line class="cls-4" x1="-6.45" y1="2.29" x2="6.45" y2="2.29"/><line class="cls-4" x1="-10.03" y1="4.34" x2="2.87" y2="4.34"/><line class="cls-4" x1="-7.82" y1="5.81" x2="5.09" y2="5.81"/><line class="cls-4" x1="-11.11" y1="7.56" x2="1.8" y2="7.56"/><line class="cls-5" x1="-8.55" y1="6.68" x2="4.36" y2="6.68"/><line class="cls-5" x1="-6.84" y1="5.07" x2="6.07" y2="5.07"/><line class="cls-5" x1="-9.21" y1="3.07" x2="3.7" y2="3.07"/><line class="cls-5" x1="-4.87" y1="1.27" x2="8.04" y2="1.27"/><line class="cls-4" x1="7.09" y1="0.63" x2="20" y2="0.63"/><line class="cls-4" x1="8.71" y1="2.29" x2="21.62" y2="2.29"/><line class="cls-4" x1="5.13" y1="4.34" x2="18.04" y2="4.34"/><line class="cls-4" x1="7.35" y1="5.81" x2="20.26" y2="5.81"/><line class="cls-4" x1="4.06" y1="7.56" x2="16.97" y2="7.56"/><line class="cls-5" x1="6.62" y1="6.68" x2="19.53" y2="6.68"/><line class="cls-5" x1="8.33" y1="5.07" x2="21.23" y2="5.07"/><line class="cls-5" x1="5.96" y1="3.07" x2="18.87" y2="3.07"/><line class="cls-5" x1="10.3" y1="1.27" x2="23.2" y2="1.27"/></g></pattern></defs><g id="Layer_2" data-name="Layer 2"><g id="Layer_1-2" data-name="Layer 1"><rect class="cls-6" x="2.5" y="32.6" width="59.98" height="9.06"/><path class="cls-6" d="M86.5,84.45h0a9.09,9.09,0,0,1-12.33-3.59L42.69,23.53A9.09,9.09,0,0,1,46.28,11.2h0a9.09,9.09,0,0,1,12.33,3.59L90.09,72.12A9.09,9.09,0,0,1,86.5,84.45Z"/><polygon class="cls-6" points="66.85 12.6 59.84 14.61 61.39 17.43 66.85 12.6"/><polygon class="cls-6" points="72.74 23.77 65.73 25.79 67.28 28.6 72.74 23.77"/><polygon class="cls-6" points="78.81 34.84 71.81 36.85 73.36 39.67 78.81 34.84"/><polygon class="cls-6" points="84.83 45.95 77.83 47.96 79.37 50.78 84.83 45.95"/><polygon class="cls-6" points="90.66 56.51 83.66 58.52 85.21 61.33 90.66 56.51"/><polygon class="cls-6" points="96.35 67.14 89.35 69.15 90.9 71.97 96.35 67.14"/><polygon class="cls-6" points="35.87 29.07 41.32 24.25 42.87 27.06 35.87 29.07"/><polygon class="cls-6" points="42.34 4.03 47.17 9.48 44.36 11.03 42.34 4.03"/><polygon class="cls-6" points="55.73 2.5 55.29 9.77 52.2 8.87 55.73 2.5"/><polygon class="cls-6" points="34.06 14.79 41.33 15.23 40.43 18.32 34.06 14.79"/><polygon class="cls-6" points="90.67 92.07 88.66 85.07 85.84 86.61 90.67 92.07"/><polygon class="cls-6" points="99.14 81.59 92.77 78.06 91.87 81.15 99.14 81.59"/><polygon class="cls-6" points="77.14 93.28 80.67 86.91 77.58 86.01 77.14 93.28"/><polygon class="cls-6" points="42.13 40.04 47.59 35.21 49.13 38.03 42.13 40.04"/><polygon class="cls-6" points="48.21 51.11 53.66 46.28 55.21 49.1 48.21 51.11"/><polygon class="cls-6" points="54.35 62.15 59.8 57.32 61.35 60.13 54.35 62.15"/><polygon class="cls-6" points="60.13 72.73 65.58 67.9 67.13 70.72 60.13 72.73"/><polygon class="cls-6" points="66.04 83.24 71.5 78.41 73.05 81.23 66.04 83.24"/></g></g></svg>