<svg xmlns="http://www.w3.org/2000/svg" xmlns:xlink="http://www.w3.org/1999/xlink" viewBox="0 0 107.9 66.2"><defs><style>.cls-1,.cls-2{stroke:#231f20;stroke-miterlimit:10;stroke-width:5px;}.cls-1{fill:url(#New_Gradient_Swatch_1);}.cls-2{fill:url(#New_Gradient_Swatch_1-2);}</style><linearGradient id="New_Gradient_Swatch_1" x1="48.1" y1="46.34" x2="59.81" y2="46.34" gradientUnits="userSpaceOnUse"><stop offset="0" stop-color="#bcbec0"/><stop offset="0.57" stop-color="#939598"/></linearGradient><linearGradient id="New_Gradient_Swatch_1-2" x1="2.5" y1="24.42" x2="105.4" y2="24.42" xlink:href="#New_Gradient_Swatch_1"/></defs><g id="Layer_2" data-name="Layer 2"><g id="Layer_1-2" data-name="Layer 1"><rect class="cls-1" x="48.1" y="28.99" width="11.71" height="34.71"/><path class="cls-2" d="M2.5,24.79C2.39,14.24,12.66,5.45,22,3.37,33.77.74,37.41,10.26,52.9,10.21S71.68.6,84,2.84c9.72,1.77,21.2,10.21,21.42,21.07.22,10.63-10.43,19.64-20,21.78-12.45,2.77-16.43-7.54-32.48-7-14.8.47-17.73,9.43-29.33,7.38C14,44.33,2.61,35.79,2.5,24.79Z"/></g></g></svg>