<svg xmlns="http://www.w3.org/2000/svg" xmlns:xlink="http://www.w3.org/1999/xlink" viewBox="0 0 142.53 102.91"><defs><style>.cls-1{fill:#fff;}.cls-1,.cls-2{stroke:#231f20;stroke-miterlimit:10;stroke-width:5px;}.cls-2{fill:url(#New_Gradient_Swatch_1);}</style><linearGradient id="New_Gradient_Swatch_1" x1="2.5" y1="51.45" x2="140.03" y2="51.45" gradientUnits="userSpaceOnUse"><stop offset="0" stop-color="#bcbec0"/><stop offset="0.57" stop-color="#939598"/></linearGradient></defs><g id="Layer_2" data-name="Layer 2"><g id="Layer_1-2" data-name="Layer 1"><path class="cls-1" d="M61.62,95.53,9.35,58.32C4,54.53,4,48.38,9.35,44.59L61.62,7.38c5.32-3.79,14-3.79,19.29,0l52.27,37.21c5.32,3.79,5.32,9.94,0,13.73L80.91,95.53C75.58,99.32,66.94,99.32,61.62,95.53Z"/><path class="cls-2" d="M71.26,100.41A20.3,20.3,0,0,1,59.59,97L7.33,59.76c-6.44-4.58-6.44-12,0-16.62L59.59,5.94A20.22,20.22,0,0,1,71.26,2.5,20.26,20.26,0,0,1,82.94,5.94l52.26,37.2c6.44,4.59,6.44,12,0,16.62L82.93,97A20.27,20.27,0,0,1,71.26,100.41Z"/></g></g></svg>