<svg xmlns="http://www.w3.org/2000/svg" xmlns:xlink="http://www.w3.org/1999/xlink" viewBox="0 0 90.44 65.75"><defs><style>.cls-1{fill:none;}.cls-2{fill:#f6a84c;}.cls-3{fill:#bd813a;}.cls-4{fill:#cf8e40;}.cls-5{fill:#c2843c;}.cls-6{fill:#f6b86f;}.cls-7{stroke:#231f20;stroke-linejoin:round;stroke-width:5px;fill:url(#Copper_Rivets);}</style><pattern id="Copper_Rivets" data-name="Copper Rivets" width="11.78" height="11.78" patternUnits="userSpaceOnUse" viewBox="0 0 11.78 11.78"><rect class="cls-1" width="11.78" height="11.78"/><rect class="cls-2" width="11.78" height="11.78"/><circle class="cls-3" cx="1.15" cy="1.18" r="0.74"/><circle class="cls-4" cx="1.15" cy="1.18" r="0.56"/><circle class="cls-3" cx="1.15" cy="7.72" r="0.74"/><circle class="cls-4" cx="1.15" cy="7.72" r="0.56"/><circle class="cls-3" cx="10.59" cy="7.72" r="0.74"/><circle class="cls-4" cx="10.59" cy="7.72" r="0.56"/><circle class="cls-3" cx="7.55" cy="1.18" r="0.74"/><circle class="cls-4" cx="7.55" cy="1.18" r="0.56"/><circle class="cls-3" cx="7.55" cy="10.61" r="0.74"/><circle class="cls-4" cx="7.55" cy="10.61" r="0.56"/><circle class="cls-3" cx="1.15" cy="10.52" r="0.74"/><circle class="cls-4" cx="1.15" cy="10.52" r="0.56"/><circle class="cls-3" cx="10.59" cy="1.16" r="0.74"/><circle class="cls-4" cx="10.59" cy="1.16" r="0.56"/><circle class="cls-3" cx="10.59" cy="10.61" r="0.74"/><circle class="cls-4" cx="10.59" cy="10.61" r="0.56"/><circle class="cls-3" cx="4.26" cy="1.18" r="0.74"/><circle class="cls-4" cx="4.26" cy="1.18" r="0.56"/><circle class="cls-3" cx="4.26" cy="10.61" r="0.74"/><circle class="cls-4" cx="4.26" cy="10.61" r="0.56"/><circle class="cls-3" cx="1.15" cy="4.32" r="0.74"/><circle class="cls-4" cx="1.15" cy="4.32" r="0.56"/><circle class="cls-3" cx="10.59" cy="4.32" r="0.74"/><circle class="cls-4" cx="10.59" cy="4.32" r="0.56"/><rect class="cls-5" x="11.53" width="0.25" height="11.78"/><polygon class="cls-5" points="0 11.78 0 11.53 11.78 11.53 11.78 11.78 0 11.78"/><polygon class="cls-6" points="0 0.25 0 0 11.78 0 11.78 0.25 0 0.25"/><rect class="cls-6" width="0.25" height="11.78"/></pattern></defs><g id="Layer_2" data-name="Layer 2"><g id="Layer_1-2" data-name="Layer 1"><polygon class="cls-7" points="52.18 42.01 2.5 13.24 8.72 2.5 58.4 31.27 52.18 42.01"/><polygon class="cls-7" points="64.34 58.38 48.14 49 62.7 23.84 78.9 33.22 64.34 58.38"/><path class="cls-7" d="M77.21,36.13c3.35,1.08,7.15,2.7,10.73,3.91l-3.61,6.24L74.6,40.64C75.7,38.75,76.11,38,77.21,36.13Z"/><path class="cls-7" d="M65.76,55.9c2.61,2.36,5.9,4.85,8.74,7.35L78.11,57l-9.73-5.64Z"/></g></g></svg>