<svg xmlns="http://www.w3.org/2000/svg" xmlns:xlink="http://www.w3.org/1999/xlink" viewBox="0 0 73.85 110.37"><defs><style>.cls-1{fill:none;}.cls-2{fill:#f6a84c;}.cls-3{fill:#bd813a;}.cls-4{fill:#cf8e40;}.cls-5{fill:#c2843c;}.cls-6{fill:#f6b86f;}.cls-7,.cls-8{stroke:#231f20;stroke-linejoin:round;stroke-width:5px;}.cls-7{fill:url(#Copper_Rivets);}.cls-8{fill:url(#Right_Shadow);}</style><pattern id="Copper_Rivets" data-name="Copper Rivets" width="11.78" height="11.78" patternUnits="userSpaceOnUse" viewBox="0 0 11.78 11.78"><rect class="cls-1" width="11.78" height="11.78"/><rect class="cls-2" width="11.78" height="11.78"/><circle class="cls-3" cx="1.15" cy="1.18" r="0.74"/><circle class="cls-4" cx="1.15" cy="1.18" r="0.56"/><circle class="cls-3" cx="1.15" cy="7.72" r="0.74"/><circle class="cls-4" cx="1.15" cy="7.72" r="0.56"/><circle class="cls-3" cx="10.59" cy="7.72" r="0.74"/><circle class="cls-4" cx="10.59" cy="7.72" r="0.56"/><circle class="cls-3" cx="7.55" cy="1.18" r="0.74"/><circle class="cls-4" cx="7.55" cy="1.18" r="0.56"/><circle class="cls-3" cx="7.55" cy="10.61" r="0.74"/><circle class="cls-4" cx="7.55" cy="10.61" r="0.56"/><circle class="cls-3" cx="1.15" cy="10.52" r="0.74"/><circle class="cls-4" cx="1.15" cy="10.52" r="0.56"/><circle class="cls-3" cx="10.59" cy="1.16" r="0.74"/><circle class="cls-4" cx="10.59" cy="1.16" r="0.56"/><circle class="cls-3" cx="10.59" cy="10.61" r="0.74"/><circle class="cls-4" cx="10.59" cy="10.61" r="0.56"/><circle class="cls-3" cx="4.26" cy="1.18" r="0.74"/><circle class="cls-4" cx="4.26" cy="1.18" r="0.56"/><circle class="cls-3" cx="4.26" cy="10.61" r="0.74"/><circle class="cls-4" cx="4.26" cy="10.61" r="0.56"/><circle class="cls-3" cx="1.15" cy="4.32" r="0.74"/><circle class="cls-4" cx="1.15" cy="4.32" r="0.56"/><circle class="cls-3" cx="10.59" cy="4.32" r="0.74"/><circle class="cls-4" cx="10.59" cy="4.32" r="0.56"/><rect class="cls-5" x="11.53" width="0.25" height="11.78"/><polygon class="cls-5" points="0 11.78 0 11.53 11.78 11.53 11.78 11.78 0 11.78"/><polygon class="cls-6" points="0 0.25 0 0 11.78 0 11.78 0.25 0 0.25"/><rect class="cls-6" width="0.25" height="11.78"/></pattern><linearGradient id="Right_Shadow" x1="2.5" y1="55.18" x2="71.35" y2="55.18" gradientUnits="userSpaceOnUse"><stop offset="0" stop-color="#130c0e" stop-opacity="0"/><stop offset="1" stop-color="#130c0c" stop-opacity="0.4"/></linearGradient></defs><g id="Layer_2" data-name="Layer 2"><g id="Layer_1-2" data-name="Layer 1"><ellipse class="cls-7" cx="36.92" cy="55.18" rx="34.42" ry="52.68"/><ellipse class="cls-8" cx="36.92" cy="55.18" rx="34.42" ry="52.68"/></g></g></svg>