<svg xmlns="http://www.w3.org/2000/svg" xmlns:xlink="http://www.w3.org/1999/xlink" viewBox="0 0 142.53 102.91"><defs><style>.cls-1{fill:none;}.cls-2{clip-path:url(#clip-path);}.cls-3{fill:#929497;}.cls-4{fill:#808184;}.cls-5{stroke:#231f20;stroke-miterlimit:10;stroke-width:5px;fill:url(#New_Pattern_Swatch_2);}.cls-6{fill:url(#Right_Shadow);}.cls-7{fill:url(#Right_Shadow-2);}</style><clipPath id="clip-path"><rect class="cls-1" width="9.61" height="9.61"/></clipPath><pattern id="New_Pattern_Swatch_2" data-name="New Pattern Swatch 2" width="9.61" height="9.61" patternUnits="userSpaceOnUse" viewBox="0 0 9.61 9.61"><rect class="cls-1" width="9.61" height="9.61"/><g class="cls-2"><rect class="cls-3" x="-4.92" y="-4.81" width="20.53" height="20.53"/><path class="cls-1" d="M-4-2.38"/><path class="cls-4" d="M-4.92-1.81a6.24,6.24,0,0,1,6,0,6.24,6.24,0,0,1-6,0Z"/><path class="cls-4" d="M0,3.18a6.24,6.24,0,0,1,6,0,6.26,6.26,0,0,1-6,0Z"/><path class="cls-4" d="M3-4.81a6.24,6.24,0,0,1,0,6,6.24,6.24,0,0,1,0-6Z"/><path class="cls-4" d="M-1.92,0a6.24,6.24,0,0,1,0,6,6.24,6.24,0,0,1,0-6Z"/><path class="cls-1" d="M5.63-2.38"/><path class="cls-4" d="M4.69-1.81a6.24,6.24,0,0,1,6,0,6.24,6.24,0,0,1-6,0Z"/><path class="cls-4" d="M9.61,3.18a6.24,6.24,0,0,1,6,0,6.26,6.26,0,0,1-6,0Z"/><path class="cls-4" d="M12.61-4.81a6.24,6.24,0,0,1,0,6,6.24,6.24,0,0,1,0-6Z"/><path class="cls-4" d="M7.69,0a6.24,6.24,0,0,1,0,6,6.24,6.24,0,0,1,0-6Z"/><path class="cls-1" d="M-4,7.19"/><path class="cls-4" d="M-4.92,7.76a6.24,6.24,0,0,1,6,0,6.26,6.26,0,0,1-6,0Z"/><path class="cls-4" d="M0,12.74a6.29,6.29,0,0,1,6,0,6.24,6.24,0,0,1-6,0Z"/><path class="cls-4" d="M3,4.76a6.24,6.24,0,0,1,0,6,6.24,6.24,0,0,1,0-6Z"/><path class="cls-4" d="M-1.92,9.57a6.24,6.24,0,0,1,0,6,6.24,6.24,0,0,1,0-6Z"/><path class="cls-1" d="M5.63,7.19"/><path class="cls-4" d="M4.69,7.76a6.24,6.24,0,0,1,6,0,6.26,6.26,0,0,1-6,0Z"/><path class="cls-4" d="M9.61,12.74a6.29,6.29,0,0,1,6,0,6.24,6.24,0,0,1-6,0Z"/><path class="cls-4" d="M12.61,4.76a6.24,6.24,0,0,1,0,6,6.24,6.24,0,0,1,0-6Z"/><path class="cls-4" d="M7.69,9.57a6.24,6.24,0,0,1,0,6,6.24,6.24,0,0,1,0-6Z"/></g></pattern><linearGradient id="Right_Shadow" x1="4.53" y1="52.12" x2="136.35" y2="52.12" gradientUnits="userSpaceOnUse"><stop offset="0" stop-color="#130c0e" stop-opacity="0"/><stop offset="1" stop-color="#130c0c" stop-opacity="0.4"/></linearGradient><linearGradient id="Right_Shadow-2" x1="1.67" y1="52.12" x2="139.2" y2="52.12" xlink:href="#Right_Shadow"/></defs><g id="Layer_2" data-name="Layer 2"><g id="Layer_1-2" data-name="Layer 1"><path class="cls-5" d="M61.62,95.53,9.35,58.32C4,54.53,4,48.38,9.35,44.59L61.62,7.38c5.32-3.79,14-3.79,19.29,0l52.27,37.21c5.32,3.79,5.32,9.94,0,13.73L80.91,95.53C75.58,99.32,66.94,99.32,61.62,95.53Z"/><path class="cls-5" d="M71.26,100.41A20.3,20.3,0,0,1,59.59,97L7.33,59.76c-6.44-4.58-6.44-12,0-16.62L59.59,5.94A20.22,20.22,0,0,1,71.26,2.5,20.26,20.26,0,0,1,82.94,5.94l52.26,37.2c6.44,4.59,6.44,12,0,16.62L82.93,97A20.27,20.27,0,0,1,71.26,100.41Z"/><path class="cls-6" d="M60.79,96.19,8.53,59C3.2,55.19,3.2,49,8.53,45.25L60.79,8c5.33-3.79,14-3.79,19.3,0l52.26,37.21c5.33,3.79,5.33,9.94,0,13.73L80.09,96.19C74.76,100,66.12,100,60.79,96.19Z"/><path class="cls-7" d="M70.44,101.07a20.2,20.2,0,0,1-11.67-3.44L6.5,60.43c-6.43-4.59-6.43-12,0-16.62L58.77,6.6A20.27,20.27,0,0,1,70.44,3.16,20.3,20.3,0,0,1,82.11,6.6l52.26,37.21c6.44,4.58,6.44,12,0,16.62L82.11,97.63A20.22,20.22,0,0,1,70.44,101.07Z"/></g></g></svg>