<svg xmlns="http://www.w3.org/2000/svg" xmlns:xlink="http://www.w3.org/1999/xlink" viewBox="0 0 107.84 76.62"><defs><style>.cls-1{fill:none;}.cls-2{clip-path:url(#clip-path);}.cls-3{fill:#929497;}.cls-4{fill:#808184;}.cls-5,.cls-6{stroke:#231f20;stroke-width:5px;fill:url(#New_Pattern_Swatch_2);}.cls-5{stroke-miterlimit:10;}.cls-6{stroke-linejoin:round;}</style><clipPath id="clip-path"><rect class="cls-1" width="9.61" height="9.61"/></clipPath><pattern id="New_Pattern_Swatch_2" data-name="New Pattern Swatch 2" width="9.61" height="9.61" patternUnits="userSpaceOnUse" viewBox="0 0 9.61 9.61"><rect class="cls-1" width="9.61" height="9.61"/><g class="cls-2"><rect class="cls-3" x="-4.92" y="-4.81" width="20.53" height="20.53"/><path class="cls-1" d="M-4-2.38"/><path class="cls-4" d="M-4.92-1.81a6.24,6.24,0,0,1,6,0,6.24,6.24,0,0,1-6,0Z"/><path class="cls-4" d="M0,3.18a6.24,6.24,0,0,1,6,0,6.26,6.26,0,0,1-6,0Z"/><path class="cls-4" d="M3-4.81a6.24,6.24,0,0,1,0,6,6.24,6.24,0,0,1,0-6Z"/><path class="cls-4" d="M-1.92,0a6.24,6.24,0,0,1,0,6,6.24,6.24,0,0,1,0-6Z"/><path class="cls-1" d="M5.63-2.38"/><path class="cls-4" d="M4.69-1.81a6.24,6.24,0,0,1,6,0,6.24,6.24,0,0,1-6,0Z"/><path class="cls-4" d="M9.61,3.18a6.24,6.24,0,0,1,6,0,6.26,6.26,0,0,1-6,0Z"/><path class="cls-4" d="M12.61-4.81a6.24,6.24,0,0,1,0,6,6.24,6.24,0,0,1,0-6Z"/><path class="cls-4" d="M7.69,0a6.24,6.24,0,0,1,0,6,6.24,6.24,0,0,1,0-6Z"/><path class="cls-1" d="M-4,7.19"/><path class="cls-4" d="M-4.92,7.76a6.24,6.24,0,0,1,6,0,6.26,6.26,0,0,1-6,0Z"/><path class="cls-4" d="M0,12.74a6.29,6.29,0,0,1,6,0,6.24,6.24,0,0,1-6,0Z"/><path class="cls-4" d="M3,4.76a6.24,6.24,0,0,1,0,6,6.24,6.24,0,0,1,0-6Z"/><path class="cls-4" d="M-1.92,9.57a6.24,6.24,0,0,1,0,6,6.24,6.24,0,0,1,0-6Z"/><path class="cls-1" d="M5.63,7.19"/><path class="cls-4" d="M4.69,7.76a6.24,6.24,0,0,1,6,0,6.26,6.26,0,0,1-6,0Z"/><path class="cls-4" d="M9.61,12.74a6.29,6.29,0,0,1,6,0,6.24,6.24,0,0,1-6,0Z"/><path class="cls-4" d="M12.61,4.76a6.24,6.24,0,0,1,0,6,6.24,6.24,0,0,1,0-6Z"/><path class="cls-4" d="M7.69,9.57a6.24,6.24,0,0,1,0,6,6.24,6.24,0,0,1,0-6Z"/></g></pattern></defs><g id="Layer_2" data-name="Layer 2"><g id="Layer_1-2" data-name="Layer 1"><polygon class="cls-5" points="54.87 65.86 4.69 73.76 2.86 62.1 53.03 54.2 54.87 65.86"/><polygon class="cls-5" points="93.75 20.93 75.09 56.51 65.42 51.44 84.08 15.85 93.75 20.93"/><circle class="cls-5" cx="63.73" cy="57.94" r="11.58"/><path class="cls-6" d="M89.92,3.52C86.13,1.84,81.27,2.2,78.71,4.81c-3.33,3.39-3.34,9.62.72,13.66l12.82,7.6a9.33,9.33,0,0,0,11.51-2.52c2.89-4,1.77-10.27-3.06-13.29l-4.49,7.57c-3.61-2.14-7.4-4.21-11-6.35C87,8.48,88,6.79,89.92,3.52Z"/></g></g></svg>