<svg xmlns="http://www.w3.org/2000/svg" xmlns:xlink="http://www.w3.org/1999/xlink" viewBox="0 0 117.33 67.04"><defs><style>.cls-1{fill:none;}.cls-2{clip-path:url(#clip-path);}.cls-3{fill:#929497;}.cls-4{fill:#808184;}.cls-5{stroke:#231f20;stroke-linejoin:round;stroke-width:5px;fill:url(#New_Pattern_Swatch_2);}</style><clipPath id="clip-path"><rect class="cls-1" width="9.61" height="9.61"/></clipPath><pattern id="New_Pattern_Swatch_2" data-name="New Pattern Swatch 2" width="9.61" height="9.61" patternUnits="userSpaceOnUse" viewBox="0 0 9.61 9.61"><rect class="cls-1" width="9.61" height="9.61"/><g class="cls-2"><rect class="cls-3" x="-4.92" y="-4.81" width="20.53" height="20.53"/><path class="cls-1" d="M-4-2.38"/><path class="cls-4" d="M-4.92-1.81a6.24,6.24,0,0,1,6,0,6.24,6.24,0,0,1-6,0Z"/><path class="cls-4" d="M0,3.18a6.24,6.24,0,0,1,6,0,6.26,6.26,0,0,1-6,0Z"/><path class="cls-4" d="M3-4.81a6.24,6.24,0,0,1,0,6,6.24,6.24,0,0,1,0-6Z"/><path class="cls-4" d="M-1.92,0a6.24,6.24,0,0,1,0,6,6.24,6.24,0,0,1,0-6Z"/><path class="cls-1" d="M5.63-2.38"/><path class="cls-4" d="M4.69-1.81a6.24,6.24,0,0,1,6,0,6.24,6.24,0,0,1-6,0Z"/><path class="cls-4" d="M9.61,3.18a6.24,6.24,0,0,1,6,0,6.26,6.26,0,0,1-6,0Z"/><path class="cls-4" d="M12.61-4.81a6.24,6.24,0,0,1,0,6,6.24,6.24,0,0,1,0-6Z"/><path class="cls-4" d="M7.69,0a6.24,6.24,0,0,1,0,6,6.24,6.24,0,0,1,0-6Z"/><path class="cls-1" d="M-4,7.19"/><path class="cls-4" d="M-4.92,7.76a6.24,6.24,0,0,1,6,0,6.26,6.26,0,0,1-6,0Z"/><path class="cls-4" d="M0,12.74a6.29,6.29,0,0,1,6,0,6.24,6.24,0,0,1-6,0Z"/><path class="cls-4" d="M3,4.76a6.24,6.24,0,0,1,0,6,6.24,6.24,0,0,1,0-6Z"/><path class="cls-4" d="M-1.92,9.57a6.24,6.24,0,0,1,0,6,6.24,6.24,0,0,1,0-6Z"/><path class="cls-1" d="M5.63,7.19"/><path class="cls-4" d="M4.69,7.76a6.24,6.24,0,0,1,6,0,6.26,6.26,0,0,1-6,0Z"/><path class="cls-4" d="M9.61,12.74a6.29,6.29,0,0,1,6,0,6.24,6.24,0,0,1-6,0Z"/><path class="cls-4" d="M12.61,4.76a6.24,6.24,0,0,1,0,6,6.24,6.24,0,0,1,0-6Z"/><path class="cls-4" d="M7.69,9.57a6.24,6.24,0,0,1,0,6,6.24,6.24,0,0,1,0-6Z"/></g></pattern></defs><g id="Layer_2" data-name="Layer 2"><g id="Layer_1-2" data-name="Layer 1"><path class="cls-5" d="M2.5,48.45C8,42.22,13.76,36.21,22.61,36.21c7.18.38,13.32,6.91,25.82,10,9.31,2.33,13.81,1.21,21.93-2.3,3.19-1.37,9-6.11,15.16-18.68l9.89,6.9C93.66,37.71,86,51,74.51,57.84c-14.13,8.46-27.37,3.59-31.11,2.1-9.7-3.85-14.84-8.75-22-8.91-9.09-.2-14,7.37-18.82,13.51C2.57,60.23,2.5,55.06,2.5,48.45Z"/><path class="cls-5" d="M21.87,36.23a8.32,8.32,0,0,1,4.78,8.55C26.06,49.12,22,51,21.79,51.05"/><path class="cls-5" d="M43.61,44.78a8.36,8.36,0,0,1,4.58,8.12,8.24,8.24,0,0,1-5.06,6.93"/><path class="cls-5" d="M65.19,46a10.08,10.08,0,0,1,6,4.79,10.65,10.65,0,0,1,.62,8.5"/><path class="cls-5" d="M81.75,32.08a6.76,6.76,0,0,1,7.83-.5A7.12,7.12,0,0,1,92.77,38"/><path class="cls-5" d="M96.36,3.86c-5-3.61-14,.67-16.14,4.75-2.83,5.33-1.42,14,4.82,17.6l10.37,5.95a12.51,12.51,0,0,0,17.07-3.29,13.34,13.34,0,0,0-2.64-18q-3.42,5.91-6.86,11.81l-12.44-7.3C92.22,11.81,94.37,7.79,96.36,3.86Z"/></g></g></svg>