<svg xmlns="http://www.w3.org/2000/svg" xmlns:xlink="http://www.w3.org/1999/xlink" viewBox="0 0 104.96 104.96"><defs><style>.cls-1,.cls-4,.cls-5{fill:none;}.cls-2{clip-path:url(#clip-path);}.cls-3{fill:#bbbdbf;}.cls-4{stroke:#d0d2d3;}.cls-4,.cls-5{stroke-miterlimit:10;stroke-width:0.25px;}.cls-5{stroke:#a6a8ab;}.cls-6,.cls-7{stroke:#231f20;stroke-linejoin:round;stroke-width:5px;}.cls-6{fill:url(#Brushed_Silver);}.cls-7{fill:url(#Right_Shadow);}</style><clipPath id="clip-path"><rect class="cls-1" width="11.63" height="8.29"/></clipPath><pattern id="Brushed_Silver" data-name="Brushed Silver" width="11.63" height="8.29" patternUnits="userSpaceOnUse" viewBox="0 0 11.63 8.29"><rect class="cls-1" width="11.63" height="8.29"/><g class="cls-2"><rect class="cls-3" x="-13.25" y="-26.54" width="46.43" height="42.83"/><line class="cls-4" x1="-8.08" y1="0.63" x2="4.83" y2="0.63"/><line class="cls-4" x1="-6.45" y1="2.29" x2="6.45" y2="2.29"/><line class="cls-4" x1="-10.03" y1="4.34" x2="2.87" y2="4.34"/><line class="cls-4" x1="-7.82" y1="5.81" x2="5.09" y2="5.81"/><line class="cls-4" x1="-11.11" y1="7.56" x2="1.8" y2="7.56"/><line class="cls-5" x1="-8.55" y1="6.68" x2="4.36" y2="6.68"/><line class="cls-5" x1="-6.84" y1="5.07" x2="6.07" y2="5.07"/><line class="cls-5" x1="-9.21" y1="3.07" x2="3.7" y2="3.07"/><line class="cls-5" x1="-4.87" y1="1.27" x2="8.04" y2="1.27"/><line class="cls-4" x1="7.09" y1="0.63" x2="20" y2="0.63"/><line class="cls-4" x1="8.71" y1="2.29" x2="21.62" y2="2.29"/><line class="cls-4" x1="5.13" y1="4.34" x2="18.04" y2="4.34"/><line class="cls-4" x1="7.35" y1="5.81" x2="20.26" y2="5.81"/><line class="cls-4" x1="4.06" y1="7.56" x2="16.97" y2="7.56"/><line class="cls-5" x1="6.62" y1="6.68" x2="19.53" y2="6.68"/><line class="cls-5" x1="8.33" y1="5.07" x2="21.23" y2="5.07"/><line class="cls-5" x1="5.96" y1="3.07" x2="18.87" y2="3.07"/><line class="cls-5" x1="10.3" y1="1.27" x2="23.2" y2="1.27"/></g></pattern><linearGradient id="Right_Shadow" x1="2.5" y1="52.48" x2="102.46" y2="52.48" gradientUnits="userSpaceOnUse"><stop offset="0" stop-color="#130c0e" stop-opacity="0"/><stop offset="1" stop-color="#130c0c" stop-opacity="0.4"/></linearGradient></defs><g id="Layer_2" data-name="Layer 2"><g id="Layer_1-2" data-name="Layer 1"><polygon class="cls-6" points="69.65 34.31 102.46 51.07 70.65 69.65 53.89 102.46 35.31 70.65 2.5 53.89 34.31 35.31 51.07 2.5 69.65 34.31"/><polygon class="cls-7" points="69.65 34.31 102.46 51.07 70.65 69.65 53.89 102.46 35.31 70.65 2.5 53.89 34.31 35.31 51.07 2.5 69.65 34.31"/></g></g></svg>