<svg xmlns="http://www.w3.org/2000/svg" xmlns:xlink="http://www.w3.org/1999/xlink" viewBox="0 0 102.74 63.52"><defs><style>.cls-1{fill:none;}.cls-2{fill:#f6a84c;}.cls-3{fill:#bd813a;}.cls-4{fill:#cf8e40;}.cls-5{fill:#c2843c;}.cls-6{fill:#f6b86f;}.cls-7{stroke:#231f20;stroke-miterlimit:10;stroke-width:5px;fill:url(#Copper_Rivets);}</style><pattern id="Copper_Rivets" data-name="Copper Rivets" width="11.78" height="11.78" patternUnits="userSpaceOnUse" viewBox="0 0 11.78 11.78"><rect class="cls-1" width="11.78" height="11.78"/><rect class="cls-2" width="11.78" height="11.78"/><circle class="cls-3" cx="1.15" cy="1.18" r="0.74"/><circle class="cls-4" cx="1.15" cy="1.18" r="0.56"/><circle class="cls-3" cx="1.15" cy="7.72" r="0.74"/><circle class="cls-4" cx="1.15" cy="7.72" r="0.56"/><circle class="cls-3" cx="10.59" cy="7.72" r="0.74"/><circle class="cls-4" cx="10.59" cy="7.72" r="0.56"/><circle class="cls-3" cx="7.55" cy="1.18" r="0.74"/><circle class="cls-4" cx="7.55" cy="1.18" r="0.56"/><circle class="cls-3" cx="7.55" cy="10.61" r="0.74"/><circle class="cls-4" cx="7.55" cy="10.61" r="0.56"/><circle class="cls-3" cx="1.15" cy="10.52" r="0.74"/><circle class="cls-4" cx="1.15" cy="10.52" r="0.56"/><circle class="cls-3" cx="10.59" cy="1.16" r="0.74"/><circle class="cls-4" cx="10.59" cy="1.16" r="0.56"/><circle class="cls-3" cx="10.59" cy="10.61" r="0.74"/><circle class="cls-4" cx="10.59" cy="10.61" r="0.56"/><circle class="cls-3" cx="4.26" cy="1.18" r="0.74"/><circle class="cls-4" cx="4.26" cy="1.18" r="0.56"/><circle class="cls-3" cx="4.26" cy="10.61" r="0.74"/><circle class="cls-4" cx="4.26" cy="10.61" r="0.56"/><circle class="cls-3" cx="1.15" cy="4.32" r="0.74"/><circle class="cls-4" cx="1.15" cy="4.32" r="0.56"/><circle class="cls-3" cx="10.59" cy="4.32" r="0.74"/><circle class="cls-4" cx="10.59" cy="4.32" r="0.56"/><rect class="cls-5" x="11.53" width="0.25" height="11.78"/><polygon class="cls-5" points="0 11.78 0 11.53 11.78 11.53 11.78 11.78 0 11.78"/><polygon class="cls-6" points="0 0.25 0 0 11.78 0 11.78 0.25 0 0.25"/><rect class="cls-6" width="0.25" height="11.78"/></pattern></defs><g id="Layer_2" data-name="Layer 2"><g id="Layer_1-2" data-name="Layer 1"><polygon class="cls-7" points="36.58 14.94 5.53 27.25 3.25 21.5 34.3 9.19 36.58 14.94"/><polygon class="cls-7" points="43.59 15.01 69.49 25.8 71.87 20.09 45.97 9.29 43.59 15.01"/><circle class="cls-7" cx="41.15" cy="10.27" r="7.77"/><polygon class="cls-7" points="36.97 48.5 6.14 35.65 3.75 41.36 34.59 54.21 36.97 48.5"/><polygon class="cls-7" points="43.98 48.56 70.06 38.22 72.34 43.98 46.26 54.32 43.98 48.56"/><circle class="cls-7" cx="41.46" cy="53.25" r="7.77"/><path class="cls-7" d="M75,16.55c0,5.61-.09,5.5-.17,14.29l-11.94-.11L63,9.42l37.14.33c0,1.8.09,7,0,10.94-5.15,2.95-8.25,2.75-10.16,1.89-2.89-1.29-3.24-4.13-6.5-5.78C80.68,15.35,77.36,15.85,75,16.55Z"/><path class="cls-7" d="M74.68,48.72c0-5.61,0-5.5.09-14.29l-11.95-.1-.18,21.31L99.78,56c0-1.8.2-7,.24-10.94-5.1-3-8.2-2.89-10.13-2.07C87,44.19,86.58,47,83.29,48.62,80.38,50,77.06,49.46,74.68,48.72Z"/></g></g></svg>