<svg xmlns="http://www.w3.org/2000/svg" xmlns:xlink="http://www.w3.org/1999/xlink" viewBox="0 0 101.64 95.78"><defs><style>.cls-1{fill:none;}.cls-2{fill:#f6a84c;}.cls-3{fill:#bd813a;}.cls-4{fill:#cf8e40;}.cls-5{fill:#c2843c;}.cls-6{fill:#f6b86f;}.cls-7{stroke:#231f20;stroke-linejoin:round;stroke-width:5px;fill:url(#Copper_Rivets);}</style><pattern id="Copper_Rivets" data-name="Copper Rivets" width="11.78" height="11.78" patternUnits="userSpaceOnUse" viewBox="0 0 11.78 11.78"><rect class="cls-1" width="11.78" height="11.78"/><rect class="cls-2" width="11.78" height="11.78"/><circle class="cls-3" cx="1.15" cy="1.18" r="0.74"/><circle class="cls-4" cx="1.15" cy="1.18" r="0.56"/><circle class="cls-3" cx="1.15" cy="7.72" r="0.74"/><circle class="cls-4" cx="1.15" cy="7.72" r="0.56"/><circle class="cls-3" cx="10.59" cy="7.72" r="0.74"/><circle class="cls-4" cx="10.59" cy="7.72" r="0.56"/><circle class="cls-3" cx="7.55" cy="1.18" r="0.74"/><circle class="cls-4" cx="7.55" cy="1.18" r="0.56"/><circle class="cls-3" cx="7.55" cy="10.61" r="0.74"/><circle class="cls-4" cx="7.55" cy="10.61" r="0.56"/><circle class="cls-3" cx="1.15" cy="10.52" r="0.74"/><circle class="cls-4" cx="1.15" cy="10.52" r="0.56"/><circle class="cls-3" cx="10.59" cy="1.16" r="0.74"/><circle class="cls-4" cx="10.59" cy="1.16" r="0.56"/><circle class="cls-3" cx="10.59" cy="10.61" r="0.74"/><circle class="cls-4" cx="10.59" cy="10.61" r="0.56"/><circle class="cls-3" cx="4.26" cy="1.18" r="0.74"/><circle class="cls-4" cx="4.26" cy="1.18" r="0.56"/><circle class="cls-3" cx="4.26" cy="10.61" r="0.74"/><circle class="cls-4" cx="4.26" cy="10.61" r="0.56"/><circle class="cls-3" cx="1.15" cy="4.32" r="0.74"/><circle class="cls-4" cx="1.15" cy="4.32" r="0.56"/><circle class="cls-3" cx="10.59" cy="4.32" r="0.74"/><circle class="cls-4" cx="10.59" cy="4.32" r="0.56"/><rect class="cls-5" x="11.53" width="0.25" height="11.78"/><polygon class="cls-5" points="0 11.78 0 11.53 11.78 11.53 11.78 11.78 0 11.78"/><polygon class="cls-6" points="0 0.25 0 0 11.78 0 11.78 0.25 0 0.25"/><rect class="cls-6" width="0.25" height="11.78"/></pattern></defs><g id="Layer_2" data-name="Layer 2"><g id="Layer_1-2" data-name="Layer 1"><rect class="cls-7" x="2.5" y="32.6" width="59.98" height="9.06"/><path class="cls-7" d="M86.5,84.45h0a9.09,9.09,0,0,1-12.33-3.59L42.69,23.53A9.09,9.09,0,0,1,46.28,11.2h0a9.09,9.09,0,0,1,12.33,3.59L90.09,72.12A9.09,9.09,0,0,1,86.5,84.45Z"/><polygon class="cls-7" points="66.85 12.6 59.84 14.61 61.39 17.43 66.85 12.6"/><polygon class="cls-7" points="72.74 23.77 65.73 25.79 67.28 28.6 72.74 23.77"/><polygon class="cls-7" points="78.81 34.84 71.81 36.85 73.36 39.67 78.81 34.84"/><polygon class="cls-7" points="84.83 45.95 77.83 47.96 79.37 50.78 84.83 45.95"/><polygon class="cls-7" points="90.66 56.51 83.66 58.52 85.21 61.33 90.66 56.51"/><polygon class="cls-7" points="96.35 67.14 89.35 69.15 90.9 71.97 96.35 67.14"/><polygon class="cls-7" points="35.87 29.07 41.32 24.25 42.87 27.06 35.87 29.07"/><polygon class="cls-7" points="42.34 4.03 47.17 9.48 44.36 11.03 42.34 4.03"/><polygon class="cls-7" points="55.73 2.5 55.29 9.77 52.2 8.87 55.73 2.5"/><polygon class="cls-7" points="34.06 14.79 41.33 15.23 40.43 18.32 34.06 14.79"/><polygon class="cls-7" points="90.67 92.07 88.66 85.07 85.84 86.61 90.67 92.07"/><polygon class="cls-7" points="99.14 81.59 92.77 78.06 91.87 81.15 99.14 81.59"/><polygon class="cls-7" points="77.14 93.28 80.67 86.91 77.58 86.01 77.14 93.28"/><polygon class="cls-7" points="42.13 40.04 47.59 35.21 49.13 38.03 42.13 40.04"/><polygon class="cls-7" points="48.21 51.11 53.66 46.28 55.21 49.1 48.21 51.11"/><polygon class="cls-7" points="54.35 62.15 59.8 57.32 61.35 60.13 54.35 62.15"/><polygon class="cls-7" points="60.13 72.73 65.58 67.9 67.13 70.72 60.13 72.73"/><polygon class="cls-7" points="66.04 83.24 71.5 78.41 73.05 81.23 66.04 83.24"/></g></g></svg>