<svg xmlns="http://www.w3.org/2000/svg" xmlns:xlink="http://www.w3.org/1999/xlink" viewBox="0 0 93.65 68.11"><defs><style>.cls-1,.cls-2{stroke:#231f20;stroke-miterlimit:10;stroke-width:5px;}.cls-1{fill:url(#Gold_Gradient);}.cls-2{fill:url(#Right_Shadow);}</style><linearGradient id="Gold_Gradient" x1="4.34" y1="34.06" x2="89.31" y2="34.06" gradientUnits="userSpaceOnUse"><stop offset="0" stop-color="#ffc654"/><stop offset="1" stop-color="#c78500"/></linearGradient><linearGradient id="Right_Shadow" x1="2.5" y1="34.06" x2="91.15" y2="34.06" gradientUnits="userSpaceOnUse"><stop offset="0" stop-color="#130c0e" stop-opacity="0"/><stop offset="1" stop-color="#130c0c" stop-opacity="0.4"/></linearGradient></defs><g id="Layer_2" data-name="Layer 2"><g id="Layer_1-2" data-name="Layer 1"><path class="cls-1" d="M40.61,62.46l-33.69-24c-3.44-2.44-3.44-6.41,0-8.85l33.69-24A11.43,11.43,0,0,1,53,5.65l33.69,24c3.44,2.44,3.44,6.41,0,8.85L53,62.46A11.43,11.43,0,0,1,40.61,62.46Z"/><path class="cls-2" d="M46.83,65.61a13.05,13.05,0,0,1-7.53-2.22l-33.69-24c-4.15-2.95-4.15-7.76,0-10.71l33.69-24A13.05,13.05,0,0,1,46.83,2.5a13,13,0,0,1,7.52,2.22L88,28.7c4.15,2.95,4.15,7.76,0,10.71l-33.69,24A13,13,0,0,1,46.83,65.61Z"/></g></g></svg>