<svg xmlns="http://www.w3.org/2000/svg" viewBox="0 0 76.23 86.06"><defs><style>.cls-1{fill:#a7a9ac;stroke:#231f20;stroke-miterlimit:10;stroke-width:5px;}</style></defs><g id="Layer_2" data-name="Layer 2"><g id="Layer_1-2" data-name="Layer 1"><path class="cls-1" d="M10.27,2.54a49.63,49.63,0,0,1,42.19,19.4C66.21,39.53,66.63,60.81,66.63,65.6H55.85c0-3.62-.48-20.69-11.71-34.33A39.5,39.5,0,0,0,10.27,16.53l-7.77,0V2.5Z"/><path class="cls-1" d="M61.31,65.6c7.4,0,12.42,9,12.42,18H47.46C47.46,73.27,54,65.6,61.31,65.6Z"/><path class="cls-1" d="M54,51.44A8.27,8.27,0,0,0,60,52a9.68,9.68,0,0,0,4.74-3.3"/><path class="cls-1" d="M45.45,32.94a6.4,6.4,0,0,0,6.45-2.13,10,10,0,0,0,2-6.95"/><path class="cls-1" d="M28.66,19.52a6.69,6.69,0,0,0,5.8-4.87,9.21,9.21,0,0,0-1-7.8"/></g></g></svg>