<svg xmlns="http://www.w3.org/2000/svg" viewBox="0 0 56.96 90.75"><defs><style>.cls-1,.cls-3{fill:#a7a9ac;}.cls-2{fill:#231f20;}.cls-3{stroke:#231f20;stroke-miterlimit:10;stroke-width:3.24px;}</style></defs><g id="Layer_2" data-name="Layer 2"><g id="Layer_1-2" data-name="Layer 1"><rect class="cls-1" x="6.04" y="6.08" width="22.94" height="22.77" transform="translate(-5.56 8.55) rotate(-23.8)"/><path class="cls-2" d="M35,24.2,10.67,34.94,0,10.74,24.35,0ZM12.55,30.1l17.63-7.78L22.47,4.84,4.84,12.62Z"/><rect class="cls-1" x="18.91" y="29.57" width="16.7" height="21.28" transform="translate(-13.91 14.42) rotate(-23.8)"/><path class="cls-2" d="M41.62,47.51,23,55.73,12.91,32.9l18.64-8.22ZM24.86,50.89l11.92-5.26L29.67,29.52,17.75,34.78Z"/><rect class="cls-1" x="31.93" y="50.32" width="10.04" height="22.41" transform="translate(-21.69 20.14) rotate(-23.8)"/><path class="cls-2" d="M48.48,70.69,35.94,76.23,25.41,52.36,38,46.82Zm-10.67.69,5.83-2.57L36.07,51.67l-5.82,2.57Z"/><path class="cls-3" d="M30.6,89.13H55.34c0-15.15-7.48-17.82-13.09-17.75S30.6,76.13,30.6,89.13Z"/></g></g></svg>