<svg xmlns="http://www.w3.org/2000/svg" xmlns:xlink="http://www.w3.org/1999/xlink" viewBox="0 0 79.15 50.97"><defs><style>.cls-1{fill:none;}.cls-2{clip-path:url(#clip-path);}.cls-3{fill:#929497;}.cls-4{fill:#808184;}.cls-5,.cls-6{stroke:#231f20;stroke-linejoin:round;stroke-width:5px;}.cls-5{fill:url(#New_Pattern_Swatch_2);}.cls-6{fill:url(#Right_Shadow);}</style><clipPath id="clip-path"><rect class="cls-1" width="9.61" height="9.61"/></clipPath><pattern id="New_Pattern_Swatch_2" data-name="New Pattern Swatch 2" width="9.61" height="9.61" patternUnits="userSpaceOnUse" viewBox="0 0 9.61 9.61"><rect class="cls-1" width="9.61" height="9.61"/><g class="cls-2"><rect class="cls-3" x="-4.92" y="-4.81" width="20.53" height="20.53"/><path class="cls-1" d="M-4-2.38"/><path class="cls-4" d="M-4.92-1.81a6.24,6.24,0,0,1,6,0,6.24,6.24,0,0,1-6,0Z"/><path class="cls-4" d="M0,3.18a6.24,6.24,0,0,1,6,0,6.26,6.26,0,0,1-6,0Z"/><path class="cls-4" d="M3-4.81a6.24,6.24,0,0,1,0,6,6.24,6.24,0,0,1,0-6Z"/><path class="cls-4" d="M-1.92,0a6.24,6.24,0,0,1,0,6,6.24,6.24,0,0,1,0-6Z"/><path class="cls-1" d="M5.63-2.38"/><path class="cls-4" d="M4.69-1.81a6.24,6.24,0,0,1,6,0,6.24,6.24,0,0,1-6,0Z"/><path class="cls-4" d="M9.61,3.18a6.24,6.24,0,0,1,6,0,6.26,6.26,0,0,1-6,0Z"/><path class="cls-4" d="M12.61-4.81a6.24,6.24,0,0,1,0,6,6.24,6.24,0,0,1,0-6Z"/><path class="cls-4" d="M7.69,0a6.24,6.24,0,0,1,0,6,6.24,6.24,0,0,1,0-6Z"/><path class="cls-1" d="M-4,7.19"/><path class="cls-4" d="M-4.92,7.76a6.24,6.24,0,0,1,6,0,6.26,6.26,0,0,1-6,0Z"/><path class="cls-4" d="M0,12.74a6.29,6.29,0,0,1,6,0,6.24,6.24,0,0,1-6,0Z"/><path class="cls-4" d="M3,4.76a6.24,6.24,0,0,1,0,6,6.24,6.24,0,0,1,0-6Z"/><path class="cls-4" d="M-1.92,9.57a6.24,6.24,0,0,1,0,6,6.24,6.24,0,0,1,0-6Z"/><path class="cls-1" d="M5.63,7.19"/><path class="cls-4" d="M4.69,7.76a6.24,6.24,0,0,1,6,0,6.26,6.26,0,0,1-6,0Z"/><path class="cls-4" d="M9.61,12.74a6.29,6.29,0,0,1,6,0,6.24,6.24,0,0,1-6,0Z"/><path class="cls-4" d="M12.61,4.76a6.24,6.24,0,0,1,0,6,6.24,6.24,0,0,1,0-6Z"/><path class="cls-4" d="M7.69,9.57a6.24,6.24,0,0,1,0,6,6.24,6.24,0,0,1,0-6Z"/></g></pattern><linearGradient id="Right_Shadow" x1="2.5" y1="25.49" x2="76.65" y2="25.49" gradientUnits="userSpaceOnUse"><stop offset="0" stop-color="#130c0e" stop-opacity="0"/><stop offset="1" stop-color="#130c0c" stop-opacity="0.4"/></linearGradient></defs><g id="Layer_2" data-name="Layer 2"><g id="Layer_1-2" data-name="Layer 1"><path class="cls-5" d="M2.5,33.22c3.64-16.33,17-28.56,32.86-30.46C53.23.62,70.83,12,76.65,30,74.89,32.14,60.3,49.19,36.57,48.45,17.27,47.84,5.09,35.88,2.5,33.22Z"/><path class="cls-6" d="M2.5,33.22c3.64-16.33,17-28.56,32.86-30.46C53.23.62,70.83,12,76.65,30,74.89,32.14,60.3,49.19,36.57,48.45,17.27,47.84,5.09,35.88,2.5,33.22Z"/></g></g></svg>