<svg xmlns="http://www.w3.org/2000/svg" xmlns:xlink="http://www.w3.org/1999/xlink" viewBox="0 0 93.65 68.11"><defs><style>.cls-1{fill:none;}.cls-2{clip-path:url(#clip-path);}.cls-3{fill:#929497;}.cls-4{fill:#808184;}.cls-5{stroke:#231f20;stroke-miterlimit:10;stroke-width:5px;fill:url(#New_Pattern_Swatch_2);}.cls-6{fill:url(#Right_Shadow);}.cls-7{fill:url(#Right_Shadow-2);}</style><clipPath id="clip-path"><rect class="cls-1" width="9.61" height="9.61"/></clipPath><pattern id="New_Pattern_Swatch_2" data-name="New Pattern Swatch 2" width="9.61" height="9.61" patternUnits="userSpaceOnUse" viewBox="0 0 9.61 9.61"><rect class="cls-1" width="9.61" height="9.61"/><g class="cls-2"><rect class="cls-3" x="-4.92" y="-4.81" width="20.53" height="20.53"/><path class="cls-1" d="M-4-2.38"/><path class="cls-4" d="M-4.92-1.81a6.24,6.24,0,0,1,6,0,6.24,6.24,0,0,1-6,0Z"/><path class="cls-4" d="M0,3.18a6.24,6.24,0,0,1,6,0,6.26,6.26,0,0,1-6,0Z"/><path class="cls-4" d="M3-4.81a6.24,6.24,0,0,1,0,6,6.24,6.24,0,0,1,0-6Z"/><path class="cls-4" d="M-1.92,0a6.24,6.24,0,0,1,0,6,6.24,6.24,0,0,1,0-6Z"/><path class="cls-1" d="M5.63-2.38"/><path class="cls-4" d="M4.69-1.81a6.24,6.24,0,0,1,6,0,6.24,6.24,0,0,1-6,0Z"/><path class="cls-4" d="M9.61,3.18a6.24,6.24,0,0,1,6,0,6.26,6.26,0,0,1-6,0Z"/><path class="cls-4" d="M12.61-4.81a6.24,6.24,0,0,1,0,6,6.24,6.24,0,0,1,0-6Z"/><path class="cls-4" d="M7.69,0a6.24,6.24,0,0,1,0,6,6.24,6.24,0,0,1,0-6Z"/><path class="cls-1" d="M-4,7.19"/><path class="cls-4" d="M-4.92,7.76a6.24,6.24,0,0,1,6,0,6.26,6.26,0,0,1-6,0Z"/><path class="cls-4" d="M0,12.74a6.29,6.29,0,0,1,6,0,6.24,6.24,0,0,1-6,0Z"/><path class="cls-4" d="M3,4.76a6.24,6.24,0,0,1,0,6,6.24,6.24,0,0,1,0-6Z"/><path class="cls-4" d="M-1.92,9.57a6.24,6.24,0,0,1,0,6,6.24,6.24,0,0,1,0-6Z"/><path class="cls-1" d="M5.63,7.19"/><path class="cls-4" d="M4.69,7.76a6.24,6.24,0,0,1,6,0,6.26,6.26,0,0,1-6,0Z"/><path class="cls-4" d="M9.61,12.74a6.29,6.29,0,0,1,6,0,6.24,6.24,0,0,1-6,0Z"/><path class="cls-4" d="M12.61,4.76a6.24,6.24,0,0,1,0,6,6.24,6.24,0,0,1,0-6Z"/><path class="cls-4" d="M7.69,9.57a6.24,6.24,0,0,1,0,6,6.24,6.24,0,0,1,0-6Z"/></g></pattern><linearGradient id="Right_Shadow" x1="4.34" y1="34.06" x2="89.31" y2="34.06" gradientUnits="userSpaceOnUse"><stop offset="0" stop-color="#130c0e" stop-opacity="0"/><stop offset="1" stop-color="#130c0c" stop-opacity="0.4"/></linearGradient><linearGradient id="Right_Shadow-2" x1="2.5" y1="34.06" x2="91.15" y2="34.06" xlink:href="#Right_Shadow"/></defs><g id="Layer_2" data-name="Layer 2"><g id="Layer_1-2" data-name="Layer 1"><path class="cls-5" d="M40.61,62.46l-33.69-24c-3.44-2.44-3.44-6.41,0-8.85l33.69-24A11.43,11.43,0,0,1,53,5.65l33.69,24c3.44,2.44,3.44,6.41,0,8.85L53,62.46A11.43,11.43,0,0,1,40.61,62.46Z"/><path class="cls-5" d="M46.83,65.61a13.05,13.05,0,0,1-7.53-2.22l-33.69-24c-4.15-2.95-4.15-7.76,0-10.71l33.69-24A13.05,13.05,0,0,1,46.83,2.5a13,13,0,0,1,7.52,2.22L88,28.7c4.15,2.95,4.15,7.76,0,10.71l-33.69,24A13,13,0,0,1,46.83,65.61Z"/><path class="cls-6" d="M40.61,62.46l-33.69-24c-3.44-2.44-3.44-6.41,0-8.85l33.69-24A11.43,11.43,0,0,1,53,5.65l33.69,24c3.44,2.44,3.44,6.41,0,8.85L53,62.46A11.43,11.43,0,0,1,40.61,62.46Z"/><path class="cls-7" d="M46.83,65.61a13.05,13.05,0,0,1-7.53-2.22l-33.69-24c-4.15-2.95-4.15-7.76,0-10.71l33.69-24A13.05,13.05,0,0,1,46.83,2.5a13,13,0,0,1,7.52,2.22L88,28.7c4.15,2.95,4.15,7.76,0,10.71l-33.69,24A13,13,0,0,1,46.83,65.61Z"/></g></g></svg>