<svg xmlns="http://www.w3.org/2000/svg" xmlns:xlink="http://www.w3.org/1999/xlink" viewBox="0 0 51.11 88.71"><defs><style>.cls-1{fill:none;}.cls-2{clip-path:url(#clip-path);}.cls-3{fill:#929497;}.cls-4{fill:#808184;}.cls-5{stroke:#231f20;stroke-miterlimit:10;stroke-width:5px;fill:url(#New_Pattern_Swatch_2);}</style><clipPath id="clip-path"><rect class="cls-1" width="9.61" height="9.61"/></clipPath><pattern id="New_Pattern_Swatch_2" data-name="New Pattern Swatch 2" width="9.61" height="9.61" patternUnits="userSpaceOnUse" viewBox="0 0 9.61 9.61"><rect class="cls-1" width="9.61" height="9.61"/><g class="cls-2"><rect class="cls-3" x="-4.92" y="-4.81" width="20.53" height="20.53"/><path class="cls-1" d="M-4-2.38"/><path class="cls-4" d="M-4.92-1.81a6.24,6.24,0,0,1,6,0,6.24,6.24,0,0,1-6,0Z"/><path class="cls-4" d="M0,3.18a6.24,6.24,0,0,1,6,0,6.26,6.26,0,0,1-6,0Z"/><path class="cls-4" d="M3-4.81a6.24,6.24,0,0,1,0,6,6.24,6.24,0,0,1,0-6Z"/><path class="cls-4" d="M-1.92,0a6.24,6.24,0,0,1,0,6,6.24,6.24,0,0,1,0-6Z"/><path class="cls-1" d="M5.63-2.38"/><path class="cls-4" d="M4.69-1.81a6.24,6.24,0,0,1,6,0,6.24,6.24,0,0,1-6,0Z"/><path class="cls-4" d="M9.61,3.18a6.24,6.24,0,0,1,6,0,6.26,6.26,0,0,1-6,0Z"/><path class="cls-4" d="M12.61-4.81a6.24,6.24,0,0,1,0,6,6.24,6.24,0,0,1,0-6Z"/><path class="cls-4" d="M7.69,0a6.24,6.24,0,0,1,0,6,6.24,6.24,0,0,1,0-6Z"/><path class="cls-1" d="M-4,7.19"/><path class="cls-4" d="M-4.92,7.76a6.24,6.24,0,0,1,6,0,6.26,6.26,0,0,1-6,0Z"/><path class="cls-4" d="M0,12.74a6.29,6.29,0,0,1,6,0,6.24,6.24,0,0,1-6,0Z"/><path class="cls-4" d="M3,4.76a6.24,6.24,0,0,1,0,6,6.24,6.24,0,0,1,0-6Z"/><path class="cls-4" d="M-1.92,9.57a6.24,6.24,0,0,1,0,6,6.24,6.24,0,0,1,0-6Z"/><path class="cls-1" d="M5.63,7.19"/><path class="cls-4" d="M4.69,7.76a6.24,6.24,0,0,1,6,0,6.26,6.26,0,0,1-6,0Z"/><path class="cls-4" d="M9.61,12.74a6.29,6.29,0,0,1,6,0,6.24,6.24,0,0,1-6,0Z"/><path class="cls-4" d="M12.61,4.76a6.24,6.24,0,0,1,0,6,6.24,6.24,0,0,1,0-6Z"/><path class="cls-4" d="M7.69,9.57a6.24,6.24,0,0,1,0,6,6.24,6.24,0,0,1,0-6Z"/></g></pattern></defs><g id="Layer_2" data-name="Layer 2"><g id="Layer_1-2" data-name="Layer 1"><polygon class="cls-5" points="12.56 41.11 6.79 38.42 22.72 4.26 28.49 6.95 12.56 41.11"/><polygon class="cls-5" points="28.46 79.86 22.69 77.17 38.62 43.01 44.39 45.7 28.46 79.86"/><polygon class="cls-5" points="44.5 37.38 38.75 40.11 22.58 6.06 28.33 3.33 44.5 37.38"/><polygon class="cls-5" points="30.03 78.44 24.28 81.17 8.11 47.12 13.86 44.39 30.03 78.44"/><circle class="cls-5" cx="9.44" cy="42.91" r="6.94"/><circle class="cls-5" cx="41.67" cy="42.91" r="6.94"/><path class="cls-5" d="M14.7,86.21H38.75c0-10.5-6.55-14.56-12-14.59S14.7,75.94,14.7,86.21Z"/></g></g></svg>