<svg xmlns="http://www.w3.org/2000/svg" viewBox="0 0 107.84 76.62"><defs><style>.cls-1,.cls-2{fill:#a7a9ac;stroke:#231f20;stroke-width:5px;}.cls-1{stroke-miterlimit:10;}.cls-2{stroke-linejoin:round;}</style></defs><g id="Layer_2" data-name="Layer 2"><g id="Layer_1-2" data-name="Layer 1"><rect class="cls-1" x="3.47" y="58.08" width="50.79" height="11.8" transform="translate(-9.6 5.27) rotate(-8.95)"/><rect class="cls-1" x="59.49" y="30.72" width="40.18" height="10.92" transform="translate(10.58 89.85) rotate(-62.32)"/><circle class="cls-1" cx="63.73" cy="57.94" r="11.58"/><path class="cls-2" d="M89.92,3.52C86.13,1.84,81.27,2.2,78.71,4.81c-3.33,3.39-3.34,9.62.72,13.66l12.82,7.6a9.33,9.33,0,0,0,11.51-2.52c2.89-4,1.77-10.27-3.06-13.29l-4.49,7.57c-3.61-2.14-7.4-4.21-11-6.35C87,8.48,88,6.79,89.92,3.52Z"/></g></g></svg>