<svg xmlns="http://www.w3.org/2000/svg" viewBox="0 0 101.64 95.78"><defs><style>.cls-1{fill:#a7a9ac;stroke:#231f20;stroke-linejoin:round;stroke-width:5px;}</style></defs><g id="Layer_2" data-name="Layer 2"><g id="Layer_1-2" data-name="Layer 1"><rect class="cls-1" x="2.5" y="32.6" width="59.98" height="9.06"/><rect class="cls-1" x="57.31" y="6.05" width="18.16" height="83.56" rx="9.08" transform="translate(-14.82 37.86) rotate(-28.77)"/><polygon class="cls-1" points="66.85 12.6 59.84 14.61 61.39 17.43 66.85 12.6"/><polygon class="cls-1" points="72.74 23.77 65.73 25.79 67.28 28.6 72.74 23.77"/><polygon class="cls-1" points="78.81 34.84 71.81 36.85 73.36 39.67 78.81 34.84"/><polygon class="cls-1" points="84.83 45.95 77.83 47.96 79.37 50.78 84.83 45.95"/><polygon class="cls-1" points="90.66 56.51 83.66 58.52 85.21 61.33 90.66 56.51"/><polygon class="cls-1" points="96.35 67.14 89.35 69.15 90.9 71.97 96.35 67.14"/><polygon class="cls-1" points="35.87 29.07 41.32 24.25 42.87 27.06 35.87 29.07"/><polygon class="cls-1" points="42.34 4.03 47.17 9.48 44.36 11.03 42.34 4.03"/><polygon class="cls-1" points="55.73 2.5 55.29 9.77 52.2 8.87 55.73 2.5"/><polygon class="cls-1" points="34.06 14.79 41.33 15.23 40.43 18.32 34.06 14.79"/><polygon class="cls-1" points="90.67 92.07 88.66 85.07 85.84 86.61 90.67 92.07"/><polygon class="cls-1" points="99.14 81.59 92.77 78.06 91.87 81.15 99.14 81.59"/><polygon class="cls-1" points="77.14 93.28 80.67 86.91 77.58 86.01 77.14 93.28"/><polygon class="cls-1" points="42.13 40.04 47.59 35.21 49.13 38.03 42.13 40.04"/><polygon class="cls-1" points="48.21 51.11 53.66 46.28 55.21 49.1 48.21 51.11"/><polygon class="cls-1" points="54.35 62.15 59.8 57.32 61.35 60.13 54.35 62.15"/><polygon class="cls-1" points="60.13 72.73 65.58 67.9 67.13 70.72 60.13 72.73"/><polygon class="cls-1" points="66.04 83.24 71.5 78.41 73.05 81.23 66.04 83.24"/></g></g></svg>