<svg xmlns="http://www.w3.org/2000/svg" viewBox="0 0 104.71 80.75"><defs><style>.cls-1{fill:#a7a9ac;stroke:#231f20;stroke-miterlimit:10;stroke-width:5px;}</style></defs><g id="Layer_2" data-name="Layer 2"><g id="Layer_1-2" data-name="Layer 1"><rect class="cls-1" x="2.5" y="29.9" width="57.76" height="11.34"/><path class="cls-1" d="M58,1.7h9.17a2,2,0,0,1,2,2V81.24a.78.78,0,0,1-.78.78h0A12.43,12.43,0,0,1,55.94,69.6V3.72a2,2,0,0,1,2-2Z" transform="translate(-10.68 24.46) rotate(-20.42)"/><path class="cls-1" d="M74.09-1.71h0a.78.78,0,0,1,.78.78V76.59a2,2,0,0,1-2,2H63.68a2,2,0,0,1-2-2V10.72A12.43,12.43,0,0,1,74.09-1.71Z" transform="translate(134.82 -2.89) rotate(118.76)"/></g></g></svg>