<svg xmlns="http://www.w3.org/2000/svg" xmlns:xlink="http://www.w3.org/1999/xlink" viewBox="0 0 106.35 98.13"><defs><style>.cls-1,.cls-2{stroke:#231f20;stroke-miterlimit:10;stroke-width:5px;}.cls-1{fill:url(#Gold_Gradient);}.cls-2{fill:url(#Right_Shadow);}</style><linearGradient id="Gold_Gradient" x1="2.5" y1="48.74" x2="103.71" y2="48.74" gradientUnits="userSpaceOnUse"><stop offset="0" stop-color="#ffc654"/><stop offset="1" stop-color="#c78500"/></linearGradient><linearGradient id="Right_Shadow" x1="2.64" y1="49.4" x2="103.85" y2="49.4" gradientUnits="userSpaceOnUse"><stop offset="0" stop-color="#130c0e" stop-opacity="0"/><stop offset="1" stop-color="#130c0c" stop-opacity="0.4"/></linearGradient></defs><g id="Layer_2" data-name="Layer 2"><g id="Layer_1-2" data-name="Layer 1"><path class="cls-1" d="M69.4,2.5H36.8a18,18,0,0,0-15.59,9L4.91,39.73a18,18,0,0,0,0,18L21.21,86A18,18,0,0,0,36.8,95H69.4A18,18,0,0,0,85,86l16.29-28.23a18,18,0,0,0,0-18L85,11.5A18,18,0,0,0,69.4,2.5Z"/><path class="cls-2" d="M69.54,3.16H36.94a18,18,0,0,0-15.59,9L5.05,40.4a18,18,0,0,0,0,18l16.3,28.23a18,18,0,0,0,15.59,9h32.6a18,18,0,0,0,15.59-9l16.3-28.23a18,18,0,0,0,0-18L85.13,12.17A18,18,0,0,0,69.54,3.16Z"/></g></g></svg>