<svg xmlns="http://www.w3.org/2000/svg" xmlns:xlink="http://www.w3.org/1999/xlink" viewBox="0 0 142.53 102.91"><defs><style>.cls-1{fill:none;}.cls-2{fill:#f6a84c;}.cls-3{fill:#bd813a;}.cls-4{fill:#cf8e40;}.cls-5{fill:#c2843c;}.cls-6{fill:#f6b86f;}.cls-7{stroke:#231f20;stroke-miterlimit:10;stroke-width:5px;fill:url(#Copper_Rivets);}.cls-8{fill:url(#Right_Shadow);}.cls-9{fill:url(#Right_Shadow-2);}</style><pattern id="Copper_Rivets" data-name="Copper Rivets" width="11.78" height="11.78" patternUnits="userSpaceOnUse" viewBox="0 0 11.78 11.78"><rect class="cls-1" width="11.78" height="11.78"/><rect class="cls-2" width="11.78" height="11.78"/><circle class="cls-3" cx="1.15" cy="1.18" r="0.74"/><circle class="cls-4" cx="1.15" cy="1.18" r="0.56"/><circle class="cls-3" cx="1.15" cy="7.72" r="0.74"/><circle class="cls-4" cx="1.15" cy="7.72" r="0.56"/><circle class="cls-3" cx="10.59" cy="7.72" r="0.74"/><circle class="cls-4" cx="10.59" cy="7.72" r="0.56"/><circle class="cls-3" cx="7.55" cy="1.18" r="0.74"/><circle class="cls-4" cx="7.55" cy="1.18" r="0.56"/><circle class="cls-3" cx="7.55" cy="10.61" r="0.74"/><circle class="cls-4" cx="7.55" cy="10.61" r="0.56"/><circle class="cls-3" cx="1.15" cy="10.52" r="0.74"/><circle class="cls-4" cx="1.15" cy="10.52" r="0.56"/><circle class="cls-3" cx="10.59" cy="1.16" r="0.74"/><circle class="cls-4" cx="10.59" cy="1.16" r="0.56"/><circle class="cls-3" cx="10.59" cy="10.61" r="0.74"/><circle class="cls-4" cx="10.59" cy="10.61" r="0.56"/><circle class="cls-3" cx="4.26" cy="1.18" r="0.74"/><circle class="cls-4" cx="4.26" cy="1.18" r="0.56"/><circle class="cls-3" cx="4.26" cy="10.61" r="0.74"/><circle class="cls-4" cx="4.26" cy="10.61" r="0.56"/><circle class="cls-3" cx="1.15" cy="4.32" r="0.74"/><circle class="cls-4" cx="1.15" cy="4.32" r="0.56"/><circle class="cls-3" cx="10.59" cy="4.32" r="0.74"/><circle class="cls-4" cx="10.59" cy="4.32" r="0.56"/><rect class="cls-5" x="11.53" width="0.25" height="11.78"/><polygon class="cls-5" points="0 11.78 0 11.53 11.78 11.53 11.78 11.78 0 11.78"/><polygon class="cls-6" points="0 0.25 0 0 11.78 0 11.78 0.25 0 0.25"/><rect class="cls-6" width="0.25" height="11.78"/></pattern><linearGradient id="Right_Shadow" x1="5.88" y1="52.12" x2="137.7" y2="52.12" gradientUnits="userSpaceOnUse"><stop offset="0" stop-color="#130c0e" stop-opacity="0"/><stop offset="1" stop-color="#130c0c" stop-opacity="0.4"/></linearGradient><linearGradient id="Right_Shadow-2" x1="3.03" y1="52.12" x2="140.55" y2="52.12" xlink:href="#Right_Shadow"/></defs><g id="Layer_2" data-name="Layer 2"><g id="Layer_1-2" data-name="Layer 1"><path class="cls-7" d="M61.62,95.53,9.35,58.32C4,54.53,4,48.38,9.35,44.59L61.62,7.38c5.32-3.79,14-3.79,19.29,0l52.27,37.21c5.32,3.79,5.32,9.94,0,13.73L80.91,95.53C75.58,99.32,66.94,99.32,61.62,95.53Z"/><path class="cls-7" d="M71.26,100.41A20.3,20.3,0,0,1,59.59,97L7.33,59.76c-6.44-4.58-6.44-12,0-16.62L59.59,5.94A20.22,20.22,0,0,1,71.26,2.5,20.26,20.26,0,0,1,82.94,5.94l52.26,37.2c6.44,4.59,6.44,12,0,16.62L82.93,97A20.27,20.27,0,0,1,71.26,100.41Z"/><path class="cls-8" d="M62.14,96.19,9.88,59c-5.33-3.79-5.33-9.94,0-13.73L62.14,8c5.33-3.79,14-3.79,19.3,0L133.7,45.25C139,49,139,55.19,133.7,59L81.44,96.19C76.11,100,67.47,100,62.14,96.19Z"/><path class="cls-9" d="M71.79,101.07a20.22,20.22,0,0,1-11.67-3.44L7.85,60.43c-6.43-4.59-6.43-12,0-16.62L60.12,6.6A20.3,20.3,0,0,1,71.79,3.16,20.3,20.3,0,0,1,83.46,6.6l52.27,37.21c6.43,4.58,6.43,12,0,16.62L83.46,97.63A20.22,20.22,0,0,1,71.79,101.07Z"/></g></g></svg>