<svg xmlns="http://www.w3.org/2000/svg" xmlns:xlink="http://www.w3.org/1999/xlink" viewBox="0 0 142.53 102.91"><defs><style>.cls-1,.cls-4,.cls-5{fill:none;}.cls-2{clip-path:url(#clip-path);}.cls-3{fill:#bbbdbf;}.cls-4{stroke:#d0d2d3;}.cls-4,.cls-5,.cls-6{stroke-miterlimit:10;}.cls-4,.cls-5{stroke-width:0.25px;}.cls-5{stroke:#a6a8ab;}.cls-6{stroke:#231f20;stroke-width:5px;fill:url(#Brushed_Silver);}.cls-7{fill:url(#Right_Shadow);}.cls-8{fill:url(#Right_Shadow-2);}</style><clipPath id="clip-path"><rect class="cls-1" width="11.63" height="8.29"/></clipPath><pattern id="Brushed_Silver" data-name="Brushed Silver" width="11.63" height="8.29" patternUnits="userSpaceOnUse" viewBox="0 0 11.63 8.29"><rect class="cls-1" width="11.63" height="8.29"/><g class="cls-2"><rect class="cls-3" x="-13.25" y="-26.54" width="46.43" height="42.83"/><line class="cls-4" x1="-8.08" y1="0.63" x2="4.83" y2="0.63"/><line class="cls-4" x1="-6.45" y1="2.29" x2="6.45" y2="2.29"/><line class="cls-4" x1="-10.03" y1="4.34" x2="2.87" y2="4.34"/><line class="cls-4" x1="-7.82" y1="5.81" x2="5.09" y2="5.81"/><line class="cls-4" x1="-11.11" y1="7.56" x2="1.8" y2="7.56"/><line class="cls-5" x1="-8.55" y1="6.68" x2="4.36" y2="6.68"/><line class="cls-5" x1="-6.84" y1="5.07" x2="6.07" y2="5.07"/><line class="cls-5" x1="-9.21" y1="3.07" x2="3.7" y2="3.07"/><line class="cls-5" x1="-4.87" y1="1.27" x2="8.04" y2="1.27"/><line class="cls-4" x1="7.09" y1="0.63" x2="20" y2="0.63"/><line class="cls-4" x1="8.71" y1="2.29" x2="21.62" y2="2.29"/><line class="cls-4" x1="5.13" y1="4.34" x2="18.04" y2="4.34"/><line class="cls-4" x1="7.35" y1="5.81" x2="20.26" y2="5.81"/><line class="cls-4" x1="4.06" y1="7.56" x2="16.97" y2="7.56"/><line class="cls-5" x1="6.62" y1="6.68" x2="19.53" y2="6.68"/><line class="cls-5" x1="8.33" y1="5.07" x2="21.23" y2="5.07"/><line class="cls-5" x1="5.96" y1="3.07" x2="18.87" y2="3.07"/><line class="cls-5" x1="10.3" y1="1.27" x2="23.2" y2="1.27"/></g></pattern><linearGradient id="Right_Shadow" x1="5.36" y1="51.45" x2="137.17" y2="51.45" gradientUnits="userSpaceOnUse"><stop offset="0" stop-color="#130c0e" stop-opacity="0"/><stop offset="1" stop-color="#130c0c" stop-opacity="0.4"/></linearGradient><linearGradient id="Right_Shadow-2" x1="2.5" y1="51.45" x2="140.03" y2="51.45" xlink:href="#Right_Shadow"/></defs><g id="Layer_2" data-name="Layer 2"><g id="Layer_1-2" data-name="Layer 1"><path class="cls-6" d="M61.62,95.53,9.35,58.32C4,54.53,4,48.38,9.35,44.59L61.62,7.38c5.32-3.79,14-3.79,19.29,0l52.27,37.21c5.32,3.79,5.32,9.94,0,13.73L80.91,95.53C75.58,99.32,66.94,99.32,61.62,95.53Z"/><path class="cls-6" d="M71.26,100.41A20.3,20.3,0,0,1,59.59,97L7.33,59.76c-6.44-4.58-6.44-12,0-16.62L59.59,5.94A20.22,20.22,0,0,1,71.26,2.5,20.26,20.26,0,0,1,82.94,5.94l52.26,37.2c6.44,4.59,6.44,12,0,16.62L82.93,97A20.27,20.27,0,0,1,71.26,100.41Z"/><path class="cls-7" d="M61.62,95.53,9.35,58.32C4,54.53,4,48.38,9.35,44.59L61.62,7.38c5.32-3.79,14-3.79,19.29,0l52.27,37.21c5.32,3.79,5.32,9.94,0,13.73L80.91,95.53C75.58,99.32,66.94,99.32,61.62,95.53Z"/><path class="cls-8" d="M71.26,100.41A20.3,20.3,0,0,1,59.59,97L7.33,59.76c-6.44-4.58-6.44-12,0-16.62L59.59,5.94A20.22,20.22,0,0,1,71.26,2.5,20.26,20.26,0,0,1,82.94,5.94l52.26,37.2c6.44,4.59,6.44,12,0,16.62L82.93,97A20.27,20.27,0,0,1,71.26,100.41Z"/></g></g></svg>